# Blender 5.1.1
# www.blender.org
mtllib arrow.mtl
o Cube
v -0.070000 0.000000 0.070000
v -0.070000 0.630000 0.700000
v -0.700000 0.630000 0.070000
v -0.070000 0.015780 0.210120
v -0.070000 0.062359 0.343284
v -0.070000 0.137429 0.462777
v -0.210120 0.015780 0.070000
v -0.214612 0.034488 0.216127
v -0.214015 0.083331 0.348052
v -0.212194 0.153894 0.457303
v -0.343284 0.062359 0.070000
v -0.347970 0.083618 0.215257
v -0.340100 0.129209 0.340471
v -0.330097 0.188836 0.436911
v -0.462777 0.137429 0.070000
v -0.457921 0.154528 0.212633
v -0.437003 0.188998 0.330243
v -0.414390 0.230386 0.414390
v -0.210120 0.630000 0.684220
v -0.343284 0.630000 0.637641
v -0.462777 0.630000 0.562571
v -0.070000 0.489880 0.684220
v -0.216127 0.485388 0.665512
v -0.348052 0.485985 0.616669
v -0.457303 0.487806 0.546106
v -0.070000 0.356716 0.637641
v -0.215257 0.352030 0.616382
v -0.340471 0.359900 0.570791
v -0.436911 0.369903 0.511164
v -0.070000 0.237223 0.562571
v -0.212633 0.242079 0.545472
v -0.330242 0.262997 0.511002
v -0.414390 0.285610 0.469614
v -0.684220 0.489880 0.070000
v -0.637641 0.356716 0.070000
v -0.562571 0.237223 0.070000
v -0.684220 0.630000 0.210120
v -0.665512 0.483873 0.214612
v -0.616669 0.351948 0.214015
v -0.546106 0.242697 0.212194
v -0.637641 0.630000 0.343284
v -0.616382 0.484743 0.347970
v -0.570791 0.359529 0.340100
v -0.511164 0.263089 0.330097
v -0.562571 0.630000 0.462777
v -0.545472 0.487367 0.457921
v -0.511002 0.369758 0.437003
v -0.469614 0.285610 0.414390
v -0.070000 11.370000 0.700000
v -1.330000 12.000000 1.330000
v -0.700000 11.370000 0.070000
v -0.226376 11.509298 0.717078
v -0.406098 11.641752 0.764346
v -0.600383 11.760762 0.839620
v -0.209790 11.370000 0.682773
v -0.339825 11.508475 0.696346
v -0.478489 11.638412 0.734609
v -0.625052 11.751188 0.793345
v -0.342210 11.370000 0.635410
v -0.441579 11.507136 0.659884
v -0.544362 11.632560 0.698937
v -0.647981 11.736331 0.746994
v -0.460924 11.370000 0.560248
v -0.530998 11.506334 0.604291
v -0.600696 11.626844 0.652329
v -0.668022 11.718194 0.699936
v -1.190700 11.982922 1.173622
v -1.058246 11.935654 0.993900
v -0.939236 11.860378 0.799615
v -1.173622 11.982922 1.190700
v -1.057016 11.943375 1.060554
v -0.956487 11.902797 0.921759
v -0.868544 11.840138 0.775034
v -0.993900 11.935654 1.058246
v -0.918831 11.899011 0.958765
v -0.854951 11.863313 0.855852
v -0.799266 11.812616 0.752091
v -0.799615 11.860378 0.939236
v -0.773510 11.838037 0.869123
v -0.751785 11.812195 0.799382
v -0.732007 11.775940 0.732007
v -0.682773 11.370000 0.209790
v -0.635410 11.370001 0.342210
v -0.560248 11.370000 0.460924
v -0.717078 11.509298 0.226376
v -0.703415 11.507016 0.343358
v -0.665079 11.506846 0.443852
v -0.606389 11.506334 0.531573
v -0.764346 11.641753 0.406099
v -0.739800 11.636557 0.481408
v -0.700733 11.632189 0.545260
v -0.652750 11.626843 0.600811
v -0.839620 11.760762 0.600383
v -0.795440 11.750612 0.626571
v -0.747413 11.736216 0.648285
v -0.699936 11.718193 0.668022
v -0.070000 0.000000 -0.070000
v -0.700000 0.630000 -0.070000
v -0.070000 0.630000 -0.700000
v -0.210120 0.015780 -0.070000
v -0.343284 0.062359 -0.070000
v -0.462777 0.137429 -0.070000
v -0.070000 0.015780 -0.210120
v -0.216127 0.034488 -0.214612
v -0.348052 0.083331 -0.214015
v -0.457303 0.153894 -0.212194
v -0.070000 0.062359 -0.343284
v -0.215257 0.083618 -0.347970
v -0.340471 0.129209 -0.340100
v -0.436911 0.188836 -0.330097
v -0.070000 0.137429 -0.462777
v -0.212633 0.154528 -0.457921
v -0.330243 0.188998 -0.437003
v -0.414390 0.230386 -0.414390
v -0.684220 0.630000 -0.210120
v -0.637641 0.630000 -0.343284
v -0.562571 0.630000 -0.462777
v -0.684220 0.489880 -0.070000
v -0.665512 0.485388 -0.216127
v -0.616669 0.485985 -0.348052
v -0.546106 0.487806 -0.457303
v -0.637641 0.356716 -0.070000
v -0.616382 0.352030 -0.215257
v -0.570791 0.359900 -0.340471
v -0.511164 0.369903 -0.436911
v -0.562571 0.237223 -0.070000
v -0.545472 0.242079 -0.212633
v -0.511002 0.262997 -0.330242
v -0.469614 0.285610 -0.414390
v -0.070000 0.489880 -0.684220
v -0.070000 0.356716 -0.637641
v -0.070000 0.237223 -0.562571
v -0.210120 0.630000 -0.684220
v -0.214612 0.483873 -0.665512
v -0.214015 0.351948 -0.616669
v -0.212194 0.242697 -0.546106
v -0.343284 0.630000 -0.637641
v -0.347970 0.484743 -0.616382
v -0.340100 0.359529 -0.570791
v -0.330097 0.263089 -0.511164
v -0.462777 0.630000 -0.562571
v -0.457921 0.487367 -0.545472
v -0.437003 0.369758 -0.511002
v -0.414390 0.285610 -0.469614
v -1.330000 12.000000 -1.330000
v -0.070000 11.370000 -0.700000
v -0.700000 11.370000 -0.070000
v -1.173622 11.982922 -1.190700
v -0.993900 11.935654 -1.058246
v -0.799615 11.860378 -0.939236
v -1.190700 11.982922 -1.173622
v -1.060554 11.943375 -1.057016
v -0.921759 11.902797 -0.956487
v -0.775034 11.840138 -0.868544
v -1.058246 11.935654 -0.993900
v -0.958765 11.899011 -0.918831
v -0.855852 11.863313 -0.854951
v -0.752091 11.812616 -0.799266
v -0.939236 11.860378 -0.799615
v -0.869123 11.838037 -0.773510
v -0.799382 11.812195 -0.751785
v -0.732007 11.775940 -0.732007
v -0.209790 11.370000 -0.682773
v -0.342210 11.370001 -0.635410
v -0.460924 11.370000 -0.560248
v -0.226376 11.509298 -0.717078
v -0.343358 11.507016 -0.703415
v -0.443852 11.506846 -0.665079
v -0.531573 11.506334 -0.606389
v -0.406099 11.641753 -0.764346
v -0.481408 11.636557 -0.739800
v -0.545260 11.632189 -0.700733
v -0.600811 11.626843 -0.652750
v -0.600383 11.760762 -0.839620
v -0.626571 11.750612 -0.795440
v -0.648285 11.736216 -0.747413
v -0.668022 11.718193 -0.699936
v -0.717078 11.509298 -0.226376
v -0.764346 11.641752 -0.406098
v -0.839620 11.760762 -0.600383
v -0.682773 11.370000 -0.209790
v -0.696346 11.508475 -0.339825
v -0.734609 11.638412 -0.478489
v -0.793345 11.751188 -0.625052
v -0.635410 11.370000 -0.342210
v -0.659884 11.507136 -0.441579
v -0.698937 11.632560 -0.544362
v -0.746994 11.736331 -0.647981
v -0.560248 11.370000 -0.460924
v -0.604291 11.506334 -0.530998
v -0.652329 11.626844 -0.600696
v -0.699936 11.718194 -0.668022
v 0.070000 0.000000 0.070000
v 0.700000 0.630000 0.070000
v 0.070000 0.630000 0.700000
v 0.210120 0.015780 0.070000
v 0.343284 0.062359 0.070000
v 0.462777 0.137429 0.070000
v 0.070000 0.015780 0.210120
v 0.216127 0.034488 0.214612
v 0.348052 0.083331 0.214015
v 0.457303 0.153894 0.212194
v 0.070000 0.062359 0.343284
v 0.215257 0.083618 0.347970
v 0.340471 0.129209 0.340100
v 0.436911 0.188836 0.330097
v 0.070000 0.137429 0.462777
v 0.212633 0.154528 0.457921
v 0.330243 0.188998 0.437003
v 0.414390 0.230386 0.414390
v 0.684220 0.630000 0.210120
v 0.637641 0.630000 0.343284
v 0.562571 0.630000 0.462777
v 0.684220 0.489880 0.070000
v 0.665512 0.485388 0.216127
v 0.616669 0.485985 0.348052
v 0.546106 0.487806 0.457303
v 0.637641 0.356716 0.070000
v 0.616382 0.352030 0.215257
v 0.570791 0.359900 0.340471
v 0.511164 0.369903 0.436911
v 0.562571 0.237223 0.070000
v 0.545472 0.242079 0.212633
v 0.511002 0.262997 0.330242
v 0.469614 0.285610 0.414390
v 0.070000 0.489880 0.684220
v 0.070000 0.356716 0.637641
v 0.070000 0.237223 0.562571
v 0.210120 0.630000 0.684220
v 0.214612 0.483873 0.665512
v 0.214015 0.351948 0.616669
v 0.212194 0.242697 0.546106
v 0.343284 0.630000 0.637641
v 0.347970 0.484743 0.616382
v 0.340100 0.359529 0.570791
v 0.330097 0.263089 0.511164
v 0.462777 0.630000 0.562571
v 0.457921 0.487367 0.545472
v 0.437003 0.369758 0.511002
v 0.414390 0.285610 0.469614
v 1.330000 12.000000 1.330000
v 0.070000 11.370000 0.700000
v 0.700000 11.370000 0.070000
v 1.173622 11.982922 1.190700
v 0.993900 11.935654 1.058246
v 0.799615 11.860378 0.939236
v 1.190700 11.982922 1.173622
v 1.060554 11.943375 1.057016
v 0.921759 11.902797 0.956487
v 0.775034 11.840138 0.868544
v 1.058246 11.935654 0.993900
v 0.958765 11.899011 0.918831
v 0.855852 11.863313 0.854951
v 0.752091 11.812616 0.799266
v 0.939236 11.860378 0.799615
v 0.869123 11.838037 0.773510
v 0.799382 11.812195 0.751785
v 0.732007 11.775940 0.732007
v 0.209790 11.370000 0.682773
v 0.342210 11.370001 0.635410
v 0.460924 11.370000 0.560248
v 0.226376 11.509298 0.717078
v 0.343358 11.507016 0.703415
v 0.443852 11.506846 0.665079
v 0.531573 11.506334 0.606389
v 0.406099 11.641753 0.764346
v 0.481408 11.636557 0.739800
v 0.545260 11.632189 0.700733
v 0.600811 11.626843 0.652750
v 0.600383 11.760762 0.839620
v 0.626571 11.750612 0.795440
v 0.648285 11.736216 0.747413
v 0.668022 11.718193 0.699936
v 0.717078 11.509298 0.226376
v 0.764346 11.641752 0.406098
v 0.839620 11.760762 0.600383
v 0.682773 11.370000 0.209790
v 0.696346 11.508475 0.339825
v 0.734609 11.638412 0.478489
v 0.793345 11.751188 0.625052
v 0.635410 11.370000 0.342210
v 0.659884 11.507136 0.441579
v 0.698937 11.632560 0.544362
v 0.746994 11.736331 0.647981
v 0.560248 11.370000 0.460924
v 0.604291 11.506334 0.530998
v 0.652329 11.626844 0.600696
v 0.699936 11.718194 0.668022
v 0.070000 0.000000 -0.070000
v 0.070000 0.630000 -0.700000
v 0.700000 0.630000 -0.070000
v 0.070000 0.015780 -0.210120
v 0.070000 0.062359 -0.343284
v 0.070000 0.137429 -0.462777
v 0.210120 0.015780 -0.070000
v 0.214612 0.034488 -0.216127
v 0.214015 0.083331 -0.348052
v 0.212194 0.153894 -0.457303
v 0.343284 0.062359 -0.070000
v 0.347970 0.083618 -0.215257
v 0.340100 0.129209 -0.340471
v 0.330097 0.188836 -0.436911
v 0.462777 0.137429 -0.070000
v 0.457921 0.154528 -0.212633
v 0.437003 0.188998 -0.330243
v 0.414390 0.230386 -0.414390
v 0.210120 0.630000 -0.684220
v 0.343284 0.630000 -0.637641
v 0.462777 0.630000 -0.562571
v 0.070000 0.489880 -0.684220
v 0.216127 0.485388 -0.665512
v 0.348052 0.485985 -0.616669
v 0.457303 0.487806 -0.546106
v 0.070000 0.356716 -0.637641
v 0.215257 0.352030 -0.616382
v 0.340471 0.359900 -0.570791
v 0.436911 0.369903 -0.511164
v 0.070000 0.237223 -0.562571
v 0.212633 0.242079 -0.545472
v 0.330242 0.262997 -0.511002
v 0.414390 0.285610 -0.469614
v 0.684220 0.489880 -0.070000
v 0.637641 0.356716 -0.070000
v 0.562571 0.237223 -0.070000
v 0.684220 0.630000 -0.210120
v 0.665512 0.483873 -0.214612
v 0.616669 0.351948 -0.214015
v 0.546106 0.242697 -0.212194
v 0.637641 0.630000 -0.343284
v 0.616382 0.484743 -0.347970
v 0.570791 0.359529 -0.340100
v 0.511164 0.263089 -0.330097
v 0.562571 0.630000 -0.462777
v 0.545472 0.487367 -0.457921
v 0.511002 0.369758 -0.437003
v 0.469614 0.285610 -0.414390
v 1.330000 12.000000 -1.330000
v 0.700000 11.370000 -0.070000
v 0.070000 11.370000 -0.700000
v 1.190700 11.982922 -1.173622
v 1.058246 11.935654 -0.993900
v 0.939236 11.860378 -0.799615
v 1.173622 11.982922 -1.190700
v 1.057016 11.943375 -1.060554
v 0.956487 11.902797 -0.921759
v 0.868544 11.840138 -0.775034
v 0.993900 11.935654 -1.058246
v 0.918831 11.899011 -0.958765
v 0.854951 11.863313 -0.855852
v 0.799266 11.812616 -0.752091
v 0.799615 11.860378 -0.939236
v 0.773510 11.838037 -0.869123
v 0.751785 11.812195 -0.799382
v 0.732007 11.775940 -0.732007
v 0.682773 11.370000 -0.209790
v 0.635410 11.370001 -0.342210
v 0.560248 11.370000 -0.460924
v 0.717078 11.509298 -0.226376
v 0.703415 11.507016 -0.343358
v 0.665079 11.506846 -0.443852
v 0.606389 11.506334 -0.531573
v 0.764346 11.641753 -0.406099
v 0.739800 11.636557 -0.481408
v 0.700733 11.632189 -0.545260
v 0.652750 11.626843 -0.600811
v 0.839620 11.760762 -0.600383
v 0.795440 11.750612 -0.626571
v 0.747413 11.736216 -0.648285
v 0.699936 11.718193 -0.668022
v 0.226376 11.509298 -0.717078
v 0.406098 11.641752 -0.764346
v 0.600383 11.760762 -0.839620
v 0.209790 11.370000 -0.682773
v 0.339825 11.508475 -0.696346
v 0.478489 11.638412 -0.734609
v 0.625052 11.751188 -0.793345
v 0.342210 11.370000 -0.635410
v 0.441579 11.507136 -0.659884
v 0.544362 11.632560 -0.698937
v 0.647981 11.736331 -0.746994
v 0.460924 11.370000 -0.560248
v 0.530998 11.506334 -0.604291
v 0.600696 11.626844 -0.652329
v 0.668022 11.718194 -0.699936
v -1.714078 12.569479 1.028882
v -1.353511 12.000000 1.353511
v -1.028882 12.569479 1.714079
v -1.763671 12.442820 1.095637
v -1.777834 12.322448 1.160461
v -1.755815 12.214435 1.220088
v -1.691469 12.569479 1.175832
v -1.740640 12.437390 1.250236
v -1.751883 12.318138 1.313952
v -1.729818 12.219382 1.366652
v -1.637016 12.569479 1.316869
v -1.683105 12.438176 1.391178
v -1.694898 12.324991 1.443995
v -1.678566 12.237816 1.481636
v -1.553423 12.569479 1.444885
v -1.603035 12.440548 1.507814
v -1.623422 12.334237 1.542941
v -1.620885 12.258173 1.560823
v -1.339933 12.014264 1.492330
v -1.312138 12.056369 1.609365
v -1.271510 12.124227 1.698699
v -1.492329 12.014264 1.339933
v -1.481796 12.031176 1.483444
v -1.452366 12.075326 1.598146
v -1.412410 12.139111 1.678994
v -1.609365 12.056369 1.312138
v -1.597871 12.075585 1.453531
v -1.562675 12.116796 1.563079
v -1.519897 12.170695 1.636069
v -1.698699 12.124227 1.271510
v -1.679320 12.139684 1.412542
v -1.636083 12.170842 1.519968
v -1.589279 12.208254 1.589279
v -1.175832 12.569479 1.691469
v -1.316869 12.569479 1.637016
v -1.444885 12.569479 1.553423
v -1.095637 12.442820 1.763671
v -1.251102 12.438759 1.739860
v -1.390665 12.439299 1.682816
v -1.506935 12.440945 1.603518
v -1.160461 12.322448 1.777835
v -1.315222 12.318212 1.751490
v -1.444208 12.325326 1.694707
v -1.542768 12.334368 1.623527
v -1.220088 12.214435 1.755815
v -1.367428 12.218823 1.729429
v -1.481838 12.237732 1.678434
v -1.560823 12.258173 1.620886
v -1.714079 12.569479 -1.028882
v -1.028882 12.569479 -1.714078
v -1.353511 12.000000 -1.353511
v -1.691469 12.569479 -1.175832
v -1.637016 12.569479 -1.316869
v -1.553423 12.569479 -1.444885
v -1.763671 12.442820 -1.095637
v -1.739860 12.438759 -1.251102
v -1.682816 12.439299 -1.390665
v -1.603518 12.440945 -1.506935
v -1.777835 12.322448 -1.160461
v -1.751490 12.318212 -1.315222
v -1.694707 12.325326 -1.444208
v -1.623527 12.334368 -1.542768
v -1.755815 12.214435 -1.220088
v -1.729428 12.218823 -1.367428
v -1.678434 12.237732 -1.481838
v -1.620886 12.258173 -1.560823
v -1.095637 12.442820 -1.763671
v -1.160461 12.322448 -1.777834
v -1.220088 12.214435 -1.755815
v -1.175832 12.569479 -1.691469
v -1.250236 12.437390 -1.740640
v -1.313952 12.318138 -1.751883
v -1.366652 12.219382 -1.729818
v -1.316869 12.569479 -1.637016
v -1.391178 12.438176 -1.683105
v -1.443995 12.324991 -1.694898
v -1.481636 12.237816 -1.678566
v -1.444885 12.569479 -1.553423
v -1.507814 12.440548 -1.603035
v -1.542941 12.334237 -1.623422
v -1.560823 12.258173 -1.620885
v -1.492330 12.014264 -1.339933
v -1.609365 12.056369 -1.312138
v -1.698699 12.124227 -1.271510
v -1.339933 12.014264 -1.492329
v -1.483444 12.031176 -1.481796
v -1.598146 12.075326 -1.452366
v -1.678994 12.139111 -1.412410
v -1.312138 12.056369 -1.609365
v -1.453531 12.075585 -1.597871
v -1.563079 12.116796 -1.562675
v -1.636069 12.170695 -1.519897
v -1.271510 12.124227 -1.698699
v -1.412542 12.139684 -1.679320
v -1.519968 12.170842 -1.636083
v -1.589279 12.208254 -1.589279
v 1.714079 12.569479 1.028882
v 1.028882 12.569479 1.714078
v 1.353511 12.000000 1.353511
v 1.691469 12.569479 1.175832
v 1.637016 12.569479 1.316869
v 1.553423 12.569479 1.444885
v 1.763671 12.442820 1.095637
v 1.739860 12.438759 1.251102
v 1.682816 12.439299 1.390665
v 1.603518 12.440945 1.506935
v 1.777835 12.322448 1.160461
v 1.751490 12.318212 1.315222
v 1.694707 12.325326 1.444208
v 1.623527 12.334368 1.542768
v 1.755815 12.214435 1.220088
v 1.729428 12.218823 1.367428
v 1.678434 12.237732 1.481838
v 1.620886 12.258173 1.560823
v 1.095637 12.442820 1.763671
v 1.160461 12.322448 1.777834
v 1.220088 12.214435 1.755815
v 1.175832 12.569479 1.691469
v 1.250236 12.437390 1.740640
v 1.313952 12.318138 1.751883
v 1.366652 12.219382 1.729818
v 1.316869 12.569479 1.637016
v 1.391178 12.438176 1.683105
v 1.443995 12.324991 1.694898
v 1.481636 12.237816 1.678566
v 1.444885 12.569479 1.553423
v 1.507814 12.440548 1.603035
v 1.542941 12.334237 1.623422
v 1.560823 12.258173 1.620885
v 1.492330 12.014264 1.339933
v 1.609365 12.056369 1.312138
v 1.698699 12.124227 1.271510
v 1.339933 12.014264 1.492329
v 1.483444 12.031176 1.481796
v 1.598146 12.075326 1.452366
v 1.678994 12.139111 1.412410
v 1.312138 12.056369 1.609365
v 1.453531 12.075585 1.597871
v 1.563079 12.116796 1.562675
v 1.636069 12.170695 1.519897
v 1.271510 12.124227 1.698699
v 1.412542 12.139684 1.679320
v 1.519968 12.170842 1.636083
v 1.589279 12.208254 1.589279
v 1.028882 12.569479 -1.714079
v 1.714078 12.569479 -1.028882
v 1.353511 12.000000 -1.353511
v 1.175832 12.569479 -1.691469
v 1.316869 12.569479 -1.637016
v 1.444885 12.569479 -1.553423
v 1.095637 12.442820 -1.763671
v 1.251102 12.438759 -1.739860
v 1.390665 12.439299 -1.682816
v 1.506935 12.440945 -1.603518
v 1.160461 12.322448 -1.777835
v 1.315222 12.318212 -1.751490
v 1.444208 12.325326 -1.694707
v 1.542768 12.334368 -1.623527
v 1.220088 12.214435 -1.755815
v 1.367428 12.218823 -1.729428
v 1.481838 12.237732 -1.678434
v 1.560823 12.258173 -1.620886
v 1.763671 12.442820 -1.095637
v 1.777834 12.322448 -1.160461
v 1.755815 12.214435 -1.220088
v 1.691469 12.569479 -1.175832
v 1.740640 12.437390 -1.250236
v 1.751883 12.318138 -1.313952
v 1.729818 12.219382 -1.366652
v 1.637016 12.569479 -1.316869
v 1.683105 12.438176 -1.391178
v 1.694898 12.324991 -1.443995
v 1.678566 12.237816 -1.481636
v 1.553423 12.569479 -1.444885
v 1.603035 12.440548 -1.507814
v 1.623422 12.334237 -1.542941
v 1.620885 12.258173 -1.560823
v 1.339933 12.014264 -1.492330
v 1.312138 12.056369 -1.609365
v 1.271510 12.124227 -1.698699
v 1.492329 12.014264 -1.339933
v 1.481796 12.031176 -1.483444
v 1.452366 12.075326 -1.598146
v 1.412410 12.139111 -1.678994
v 1.609365 12.056369 -1.312138
v 1.597871 12.075585 -1.453531
v 1.562675 12.116796 -1.563079
v 1.519897 12.170695 -1.636069
v 1.698699 12.124227 -1.271510
v 1.679320 12.139684 -1.412542
v 1.636083 12.170842 -1.519968
v 1.589279 12.208254 -1.589279
v -0.910598 14.267735 0.225402
v -0.225402 14.267735 0.910598
v -0.011166 14.837214 0.011166
v -0.871345 14.311247 0.356624
v -0.805571 14.341497 0.486336
v -0.716432 14.357008 0.608257
v -0.833914 14.393691 0.198804
v -0.779592 14.420023 0.326134
v -0.725626 14.442188 0.449454
v -0.653928 14.453426 0.560960
v -0.729996 14.513415 0.168246
v -0.685627 14.525372 0.294073
v -0.643339 14.535307 0.412013
v -0.589528 14.538858 0.512975
v -0.603844 14.620971 0.135218
v -0.581013 14.620438 0.262441
v -0.556930 14.615576 0.377759
v -0.525245 14.605696 0.469182
v -0.198803 14.393691 0.833914
v -0.168246 14.513415 0.729996
v -0.135217 14.620972 0.603844
v -0.356624 14.311247 0.871345
v -0.325732 14.419568 0.779489
v -0.294369 14.526697 0.688716
v -0.262700 14.620961 0.582864
v -0.486336 14.341497 0.805571
v -0.448569 14.440195 0.722391
v -0.411911 14.535191 0.643313
v -0.377811 14.615682 0.557300
v -0.608257 14.357008 0.716432
v -0.560783 14.452476 0.652095
v -0.512939 14.538668 0.589161
v -0.469182 14.605697 0.525245
v -0.157818 14.821764 0.037764
v -0.310483 14.779032 0.068322
v -0.461657 14.710997 0.101350
v -0.037764 14.821764 0.157818
v -0.183942 14.786155 0.183637
v -0.325866 14.750447 0.207711
v -0.460709 14.696378 0.233383
v -0.068322 14.779032 0.310483
v -0.208149 14.747024 0.325856
v -0.339394 14.717083 0.339316
v -0.456726 14.675999 0.353670
v -0.101350 14.710997 0.461657
v -0.233642 14.694478 0.461030
v -0.353722 14.675618 0.456790
v -0.451580 14.648727 0.451580
v -0.910598 14.267735 -0.225402
v -0.011166 14.837214 -0.011166
v -0.225402 14.267735 -0.910598
v -0.833914 14.393691 -0.198803
v -0.729996 14.513415 -0.168246
v -0.603844 14.620972 -0.135217
v -0.871345 14.311247 -0.356624
v -0.779489 14.419568 -0.325732
v -0.688716 14.526697 -0.294369
v -0.582864 14.620961 -0.262700
v -0.805571 14.341497 -0.486336
v -0.722391 14.440195 -0.448569
v -0.643313 14.535191 -0.411911
v -0.557300 14.615682 -0.377811
v -0.716432 14.357008 -0.608257
v -0.652095 14.452476 -0.560783
v -0.589161 14.538668 -0.512939
v -0.525245 14.605697 -0.469182
v -0.037764 14.821764 -0.157818
v -0.068322 14.779032 -0.310483
v -0.101350 14.710997 -0.461657
v -0.157818 14.821764 -0.037764
v -0.183637 14.786155 -0.183942
v -0.207711 14.750447 -0.325866
v -0.233383 14.696378 -0.460709
v -0.310483 14.779032 -0.068322
v -0.325856 14.747024 -0.208149
v -0.339316 14.717083 -0.339394
v -0.353670 14.675999 -0.456726
v -0.461657 14.710997 -0.101350
v -0.461030 14.694478 -0.233642
v -0.456790 14.675618 -0.353722
v -0.451580 14.648727 -0.451580
v -0.356624 14.311247 -0.871345
v -0.486336 14.341497 -0.805571
v -0.608257 14.357008 -0.716432
v -0.198804 14.393691 -0.833914
v -0.326134 14.420023 -0.779592
v -0.449454 14.442188 -0.725626
v -0.560960 14.453426 -0.653928
v -0.168246 14.513415 -0.729996
v -0.294073 14.525372 -0.685627
v -0.412013 14.535307 -0.643339
v -0.512975 14.538858 -0.589528
v -0.135218 14.620971 -0.603844
v -0.262441 14.620438 -0.581013
v -0.377759 14.615576 -0.556930
v -0.469182 14.605696 -0.525245
v 0.910598 14.267735 0.225402
v 0.011166 14.837214 0.011166
v 0.225402 14.267735 0.910598
v 0.833914 14.393691 0.198803
v 0.729996 14.513415 0.168246
v 0.603844 14.620972 0.135217
v 0.871345 14.311247 0.356624
v 0.779489 14.419568 0.325732
v 0.688716 14.526697 0.294369
v 0.582864 14.620961 0.262700
v 0.805571 14.341497 0.486336
v 0.722391 14.440195 0.448569
v 0.643313 14.535191 0.411911
v 0.557300 14.615682 0.377811
v 0.716432 14.357008 0.608257
v 0.652095 14.452476 0.560783
v 0.589161 14.538668 0.512939
v 0.525245 14.605697 0.469182
v 0.037764 14.821764 0.157818
v 0.068322 14.779032 0.310483
v 0.101350 14.710997 0.461657
v 0.157818 14.821764 0.037764
v 0.183637 14.786155 0.183942
v 0.207711 14.750447 0.325866
v 0.233383 14.696378 0.460709
v 0.310483 14.779032 0.068322
v 0.325856 14.747024 0.208149
v 0.339316 14.717083 0.339394
v 0.353670 14.675999 0.456726
v 0.461657 14.710997 0.101350
v 0.461030 14.694478 0.233642
v 0.456790 14.675618 0.353722
v 0.451580 14.648727 0.451580
v 0.356624 14.311247 0.871345
v 0.486336 14.341497 0.805571
v 0.608257 14.357008 0.716432
v 0.198804 14.393691 0.833914
v 0.326134 14.420023 0.779592
v 0.449454 14.442188 0.725626
v 0.560960 14.453426 0.653928
v 0.168246 14.513415 0.729996
v 0.294073 14.525372 0.685627
v 0.412013 14.535307 0.643339
v 0.512975 14.538858 0.589528
v 0.135218 14.620971 0.603844
v 0.262441 14.620438 0.581013
v 0.377759 14.615576 0.556930
v 0.469182 14.605696 0.525245
v 0.225402 14.267735 -0.910598
v 0.011166 14.837214 -0.011166
v 0.910598 14.267735 -0.225402
v 0.198803 14.393691 -0.833914
v 0.168246 14.513415 -0.729996
v 0.135217 14.620972 -0.603844
v 0.356624 14.311247 -0.871345
v 0.325732 14.419568 -0.779489
v 0.294369 14.526697 -0.688716
v 0.262700 14.620961 -0.582864
v 0.486336 14.341497 -0.805571
v 0.448569 14.440195 -0.722391
v 0.411911 14.535191 -0.643313
v 0.377811 14.615682 -0.557300
v 0.608257 14.357008 -0.716432
v 0.560783 14.452476 -0.652095
v 0.512939 14.538668 -0.589161
v 0.469182 14.605697 -0.525245
v 0.157818 14.821764 -0.037764
v 0.310483 14.779032 -0.068322
v 0.461657 14.710997 -0.101350
v 0.037764 14.821764 -0.157818
v 0.183942 14.786155 -0.183637
v 0.325866 14.750447 -0.207711
v 0.460709 14.696378 -0.233383
v 0.068322 14.779032 -0.310483
v 0.208149 14.747024 -0.325856
v 0.339394 14.717083 -0.339316
v 0.456726 14.675999 -0.353670
v 0.101350 14.710997 -0.461657
v 0.233642 14.694478 -0.461030
v 0.353722 14.675618 -0.456790
v 0.451580 14.648727 -0.451580
v 0.871345 14.311247 -0.356624
v 0.805571 14.341497 -0.486336
v 0.716432 14.357008 -0.608257
v 0.833914 14.393691 -0.198804
v 0.779592 14.420023 -0.326134
v 0.725626 14.442188 -0.449454
v 0.653928 14.453426 -0.560960
v 0.729996 14.513415 -0.168246
v 0.685627 14.525372 -0.294073
v 0.643339 14.535307 -0.412013
v 0.589528 14.538858 -0.512975
v 0.603844 14.620971 -0.135218
v 0.581013 14.620438 -0.262441
v 0.556930 14.615576 -0.377759
v 0.525245 14.605696 -0.469182
vn -0.1170 -0.9862 0.1170
vn -0.1159 -0.9345 0.3366
vn -0.1109 -0.8379 0.5344
vn -0.1083 -0.7030 0.7029
vn -0.3360 -0.9345 0.1176
vn -0.3336 -0.8813 0.3346
vn -0.3218 -0.7916 0.5195
vn -0.3155 -0.6714 0.6706
vn -0.5343 -0.8378 0.1119
vn -0.5199 -0.7911 0.3225
vn -0.4911 -0.7194 0.4911
vn -0.4735 -0.6229 0.6227
vn -0.1170 -0.1170 0.9862
vn -0.3366 -0.1159 0.9345
vn -0.5344 -0.1109 0.8379
vn -0.7029 -0.1083 0.7030
vn -0.1176 -0.3360 0.9345
vn -0.3346 -0.3336 0.8813
vn -0.5195 -0.3218 0.7916
vn -0.6706 -0.3155 0.6714
vn -0.1119 -0.5343 0.8378
vn -0.3225 -0.5199 0.7911
vn -0.4911 -0.4911 0.7194
vn -0.6227 -0.4735 0.6229
vn -0.9862 -0.1170 0.1170
vn -0.9345 -0.3366 0.1159
vn -0.8379 -0.5344 0.1109
vn -0.7030 -0.7029 0.1083
vn -0.9345 -0.1176 0.3360
vn -0.8813 -0.3346 0.3336
vn -0.7916 -0.5195 0.3218
vn -0.6714 -0.6706 0.3155
vn -0.8378 -0.1119 0.5343
vn -0.7911 -0.3225 0.5199
vn -0.7194 -0.4911 0.4911
vn -0.6229 -0.6227 0.4735
vn -0.5774 -0.5774 0.5774
vn -0.1426 -0.2527 0.9570
vn -0.2120 -0.5257 0.8238
vn -0.3184 -0.7798 0.5390
vn -0.3607 -0.9006 0.2425
vn -0.3100 -0.3784 0.8722
vn -0.3145 -0.5348 0.7842
vn -0.3730 -0.7197 0.5856
vn -0.4009 -0.8632 0.3068
vn -0.4666 -0.4759 0.7456
vn -0.4570 -0.5641 0.6877
vn -0.4697 -0.6847 0.5573
vn -0.4488 -0.8067 0.3845
vn -0.1033 -0.9893 0.1033
vn -0.2072 -0.9714 0.1163
vn -0.1159 -0.9433 0.3112
vn -0.2426 -0.8977 0.3678
vn -0.1099 -0.9672 0.2291
vn -0.2366 -0.9611 0.1424
vn -0.2080 -0.9304 0.3018
vn -0.3024 -0.8582 0.4147
vn -0.2801 -0.9462 0.1620
vn -0.3177 -0.9320 0.1747
vn -0.3199 -0.8942 0.3132
vn -0.3826 -0.8055 0.4526
vn -0.9615 -0.2503 0.1134
vn -0.8499 -0.4244 0.3124
vn -0.7278 -0.4988 0.4707
vn -0.6020 -0.5137 0.6113
vn -0.8711 -0.4661 0.1550
vn -0.7662 -0.5415 0.3459
vn -0.6759 -0.5589 0.4804
vn -0.5760 -0.5649 0.5909
vn -0.5929 -0.7521 0.2877
vn -0.5562 -0.7244 0.4073
vn -0.5478 -0.6835 0.4824
vn -0.5271 -0.6638 0.5305
vn -0.4580 -0.7619 0.4580
vn -0.1170 -0.9862 -0.1170
vn -0.3366 -0.9345 -0.1159
vn -0.5344 -0.8379 -0.1109
vn -0.7029 -0.7030 -0.1083
vn -0.1176 -0.9345 -0.3360
vn -0.3346 -0.8813 -0.3336
vn -0.5195 -0.7916 -0.3218
vn -0.6706 -0.6714 -0.3155
vn -0.1119 -0.8378 -0.5343
vn -0.3225 -0.7911 -0.5199
vn -0.4911 -0.7194 -0.4911
vn -0.6227 -0.6229 -0.4735
vn -0.9862 -0.1170 -0.1170
vn -0.9345 -0.1159 -0.3366
vn -0.8379 -0.1109 -0.5344
vn -0.7030 -0.1083 -0.7029
vn -0.9345 -0.3360 -0.1176
vn -0.8813 -0.3336 -0.3346
vn -0.7916 -0.3218 -0.5195
vn -0.6714 -0.3155 -0.6706
vn -0.8378 -0.5343 -0.1119
vn -0.7911 -0.5199 -0.3225
vn -0.7194 -0.4911 -0.4911
vn -0.6229 -0.4735 -0.6227
vn -0.1170 -0.1170 -0.9862
vn -0.1159 -0.3366 -0.9345
vn -0.1109 -0.5344 -0.8379
vn -0.1083 -0.7029 -0.7030
vn -0.3360 -0.1176 -0.9345
vn -0.3336 -0.3346 -0.8813
vn -0.3218 -0.5195 -0.7916
vn -0.3155 -0.6706 -0.6714
vn -0.5343 -0.1119 -0.8378
vn -0.5199 -0.3225 -0.7911
vn -0.4911 -0.4911 -0.7194
vn -0.4735 -0.6227 -0.6229
vn -0.5773 -0.5774 -0.5774
vn -0.1033 -0.9893 -0.1033
vn -0.1163 -0.9714 -0.2072
vn -0.3112 -0.9432 -0.1159
vn -0.3678 -0.8977 -0.2426
vn -0.2291 -0.9672 -0.1099
vn -0.1424 -0.9611 -0.2366
vn -0.3018 -0.9304 -0.2080
vn -0.4147 -0.8582 -0.3023
vn -0.1620 -0.9462 -0.2801
vn -0.1747 -0.9320 -0.3177
vn -0.3132 -0.8942 -0.3199
vn -0.4526 -0.8055 -0.3826
vn -0.1134 -0.2503 -0.9615
vn -0.3124 -0.4244 -0.8499
vn -0.4707 -0.4988 -0.7278
vn -0.6113 -0.5137 -0.6020
vn -0.1550 -0.4661 -0.8711
vn -0.3459 -0.5415 -0.7662
vn -0.4804 -0.5589 -0.6759
vn -0.5909 -0.5649 -0.5760
vn -0.2877 -0.7521 -0.5929
vn -0.4073 -0.7244 -0.5562
vn -0.4824 -0.6835 -0.5478
vn -0.5305 -0.6638 -0.5271
vn -0.9570 -0.2527 -0.1426
vn -0.8238 -0.5257 -0.2120
vn -0.5390 -0.7798 -0.3184
vn -0.2425 -0.9006 -0.3607
vn -0.8722 -0.3784 -0.3100
vn -0.7842 -0.5348 -0.3145
vn -0.5855 -0.7197 -0.3730
vn -0.3068 -0.8632 -0.4009
vn -0.7456 -0.4759 -0.4666
vn -0.6877 -0.5641 -0.4570
vn -0.5573 -0.6847 -0.4697
vn -0.3845 -0.8067 -0.4488
vn -0.4580 -0.7619 -0.4580
vn 0.1170 -0.9862 0.1170
vn 0.3366 -0.9345 0.1159
vn 0.5344 -0.8379 0.1109
vn 0.7029 -0.7030 0.1083
vn 0.1176 -0.9345 0.3360
vn 0.3346 -0.8813 0.3336
vn 0.5195 -0.7916 0.3218
vn 0.6706 -0.6714 0.3155
vn 0.1119 -0.8378 0.5343
vn 0.3225 -0.7911 0.5199
vn 0.4911 -0.7194 0.4911
vn 0.6227 -0.6229 0.4735
vn 0.9862 -0.1170 0.1170
vn 0.9345 -0.1159 0.3366
vn 0.8379 -0.1109 0.5344
vn 0.7030 -0.1083 0.7029
vn 0.9345 -0.3360 0.1176
vn 0.8813 -0.3336 0.3346
vn 0.7916 -0.3218 0.5195
vn 0.6714 -0.3155 0.6706
vn 0.8378 -0.5343 0.1119
vn 0.7911 -0.5199 0.3224
vn 0.7194 -0.4911 0.4911
vn 0.6229 -0.4735 0.6227
vn 0.1170 -0.1170 0.9862
vn 0.1159 -0.3366 0.9345
vn 0.1109 -0.5344 0.8379
vn 0.1083 -0.7029 0.7030
vn 0.3360 -0.1176 0.9345
vn 0.3336 -0.3346 0.8813
vn 0.3218 -0.5195 0.7916
vn 0.3155 -0.6706 0.6714
vn 0.5343 -0.1119 0.8378
vn 0.5199 -0.3225 0.7911
vn 0.4911 -0.4911 0.7194
vn 0.4735 -0.6227 0.6229
vn 0.5773 -0.5774 0.5774
vn 0.1033 -0.9893 0.1033
vn 0.1163 -0.9714 0.2072
vn 0.3112 -0.9432 0.1159
vn 0.3678 -0.8977 0.2426
vn 0.2291 -0.9672 0.1099
vn 0.1424 -0.9611 0.2366
vn 0.3018 -0.9304 0.2080
vn 0.4147 -0.8582 0.3023
vn 0.1620 -0.9462 0.2801
vn 0.1747 -0.9320 0.3177
vn 0.3132 -0.8942 0.3199
vn 0.4526 -0.8055 0.3826
vn 0.1134 -0.2503 0.9615
vn 0.3124 -0.4244 0.8499
vn 0.4707 -0.4988 0.7278
vn 0.6113 -0.5137 0.6020
vn 0.1550 -0.4661 0.8711
vn 0.3459 -0.5415 0.7662
vn 0.4804 -0.5589 0.6759
vn 0.5909 -0.5649 0.5760
vn 0.2877 -0.7521 0.5929
vn 0.4073 -0.7244 0.5562
vn 0.4824 -0.6835 0.5478
vn 0.5305 -0.6638 0.5271
vn 0.9570 -0.2527 0.1426
vn 0.8238 -0.5257 0.2120
vn 0.5390 -0.7798 0.3184
vn 0.2425 -0.9006 0.3607
vn 0.8722 -0.3784 0.3100
vn 0.7842 -0.5348 0.3145
vn 0.5855 -0.7197 0.3730
vn 0.3068 -0.8632 0.4009
vn 0.7456 -0.4759 0.4666
vn 0.6877 -0.5641 0.4570
vn 0.5573 -0.6847 0.4697
vn 0.3845 -0.8067 0.4488
vn 0.4580 -0.7619 0.4580
vn 0.1170 -0.9862 -0.1170
vn 0.1159 -0.9345 -0.3366
vn 0.1109 -0.8379 -0.5344
vn 0.1083 -0.7030 -0.7029
vn 0.3360 -0.9345 -0.1176
vn 0.3336 -0.8813 -0.3346
vn 0.3218 -0.7916 -0.5195
vn 0.3155 -0.6714 -0.6706
vn 0.5343 -0.8378 -0.1119
vn 0.5199 -0.7911 -0.3225
vn 0.4911 -0.7194 -0.4911
vn 0.4735 -0.6229 -0.6227
vn 0.1170 -0.1170 -0.9862
vn 0.3366 -0.1159 -0.9345
vn 0.5344 -0.1109 -0.8379
vn 0.7029 -0.1083 -0.7030
vn 0.1176 -0.3360 -0.9345
vn 0.3346 -0.3336 -0.8813
vn 0.5195 -0.3218 -0.7916
vn 0.6706 -0.3155 -0.6714
vn 0.1119 -0.5343 -0.8378
vn 0.3225 -0.5199 -0.7911
vn 0.4911 -0.4911 -0.7194
vn 0.6227 -0.4735 -0.6229
vn 0.9862 -0.1170 -0.1170
vn 0.9345 -0.3366 -0.1159
vn 0.8379 -0.5344 -0.1109
vn 0.7030 -0.7029 -0.1083
vn 0.9345 -0.1176 -0.3360
vn 0.8813 -0.3346 -0.3336
vn 0.7916 -0.5195 -0.3218
vn 0.6714 -0.6706 -0.3155
vn 0.8378 -0.1119 -0.5343
vn 0.7911 -0.3225 -0.5199
vn 0.7194 -0.4911 -0.4911
vn 0.6229 -0.6227 -0.4735
vn 0.5774 -0.5774 -0.5774
vn 0.1033 -0.9893 -0.1033
vn 0.2072 -0.9714 -0.1163
vn 0.1159 -0.9433 -0.3112
vn 0.2426 -0.8977 -0.3678
vn 0.1099 -0.9672 -0.2291
vn 0.2366 -0.9611 -0.1424
vn 0.2080 -0.9304 -0.3018
vn 0.3024 -0.8582 -0.4147
vn 0.2801 -0.9462 -0.1620
vn 0.3177 -0.9320 -0.1747
vn 0.3199 -0.8942 -0.3132
vn 0.3826 -0.8055 -0.4526
vn 0.9615 -0.2503 -0.1134
vn 0.8499 -0.4244 -0.3124
vn 0.7278 -0.4988 -0.4707
vn 0.6020 -0.5137 -0.6113
vn 0.8711 -0.4661 -0.1550
vn 0.7662 -0.5415 -0.3459
vn 0.6759 -0.5589 -0.4804
vn 0.5760 -0.5649 -0.5909
vn 0.5929 -0.7521 -0.2877
vn 0.5562 -0.7244 -0.4073
vn 0.5478 -0.6835 -0.4824
vn 0.5271 -0.6638 -0.5305
vn 0.1426 -0.2527 -0.9570
vn 0.2120 -0.5257 -0.8238
vn 0.3184 -0.7798 -0.5390
vn 0.3607 -0.9006 -0.2425
vn 0.3100 -0.3784 -0.8722
vn 0.3145 -0.5348 -0.7842
vn 0.3730 -0.7197 -0.5856
vn 0.4009 -0.8632 -0.3068
vn 0.4666 -0.4759 -0.7456
vn 0.4570 -0.5641 -0.6877
vn 0.4697 -0.6847 -0.5573
vn 0.4488 -0.8067 -0.3845
vn 0.4580 -0.7619 -0.4580
vn -0.8961 0.4201 0.1432
vn -0.9689 0.1886 0.1600
vn -0.9786 -0.1165 0.1697
vn -0.8736 -0.4559 0.1702
vn -0.8169 0.4779 0.3231
vn -0.8890 0.2726 0.3680
vn -0.9150 0.0071 0.4034
vn -0.8539 -0.2952 0.4286
vn -0.7157 0.5131 0.4738
vn -0.7812 0.3275 0.5315
vn -0.8134 0.1009 0.5730
vn -0.7808 -0.1481 0.6070
vn -0.1190 -0.9857 0.1190
vn -0.1432 -0.9154 0.3761
vn -0.1609 -0.7423 0.6504
vn -0.1702 -0.4563 0.8734
vn -0.3756 -0.9153 0.1451
vn -0.4252 -0.7983 0.4264
vn -0.4401 -0.5832 0.6828
vn -0.4287 -0.2970 0.8532
vn -0.6507 -0.7418 0.1622
vn -0.6834 -0.5818 0.4411
vn -0.6547 -0.3780 0.6546
vn -0.6070 -0.1485 0.7807
vn -0.1432 0.4201 0.8961
vn -0.3233 0.4793 0.8159
vn -0.4735 0.5138 0.7154
vn -0.6017 0.5251 0.6018
vn -0.1616 0.1902 0.9683
vn -0.3687 0.2741 0.8882
vn -0.5309 0.3282 0.7813
vn -0.6628 0.3469 0.6635
vn -0.1708 -0.1158 0.9785
vn -0.4043 0.0067 0.9146
vn -0.5730 0.1009 0.8133
vn -0.6999 0.1414 0.7001
vn -0.7064 -0.0446 0.7064
vn -0.8961 0.4201 -0.1432
vn -0.8159 0.4793 -0.3233
vn -0.7154 0.5138 -0.4735
vn -0.6018 0.5251 -0.6017
vn -0.9683 0.1902 -0.1616
vn -0.8882 0.2741 -0.3687
vn -0.7813 0.3282 -0.5309
vn -0.6635 0.3469 -0.6628
vn -0.9785 -0.1158 -0.1708
vn -0.9146 0.0067 -0.4043
vn -0.8134 0.1009 -0.5730
vn -0.7001 0.1414 -0.6999
vn -0.1432 0.4201 -0.8961
vn -0.1600 0.1886 -0.9689
vn -0.1697 -0.1165 -0.9786
vn -0.1702 -0.4559 -0.8736
vn -0.3231 0.4779 -0.8169
vn -0.3680 0.2726 -0.8890
vn -0.4034 0.0071 -0.9150
vn -0.4286 -0.2952 -0.8539
vn -0.4738 0.5131 -0.7157
vn -0.5315 0.3275 -0.7812
vn -0.5730 0.1009 -0.8133
vn -0.6070 -0.1481 -0.7808
vn -0.1190 -0.9857 -0.1190
vn -0.3761 -0.9154 -0.1432
vn -0.6504 -0.7423 -0.1609
vn -0.8734 -0.4563 -0.1702
vn -0.1451 -0.9153 -0.3756
vn -0.4264 -0.7983 -0.4252
vn -0.6828 -0.5832 -0.4401
vn -0.8532 -0.2970 -0.4287
vn -0.1622 -0.7418 -0.6507
vn -0.4411 -0.5818 -0.6834
vn -0.6547 -0.3780 -0.6547
vn -0.7807 -0.1485 -0.6071
vn -0.7064 -0.0446 -0.7064
vn 0.8961 0.4201 0.1432
vn 0.8159 0.4793 0.3233
vn 0.7154 0.5138 0.4735
vn 0.6018 0.5251 0.6017
vn 0.9683 0.1902 0.1616
vn 0.8882 0.2741 0.3687
vn 0.7813 0.3282 0.5309
vn 0.6635 0.3469 0.6628
vn 0.9785 -0.1158 0.1708
vn 0.9146 0.0067 0.4043
vn 0.8134 0.1009 0.5730
vn 0.7001 0.1414 0.6999
vn 0.1432 0.4201 0.8961
vn 0.1600 0.1886 0.9689
vn 0.1697 -0.1165 0.9786
vn 0.1702 -0.4559 0.8736
vn 0.3231 0.4779 0.8169
vn 0.3680 0.2726 0.8890
vn 0.4034 0.0071 0.9150
vn 0.4286 -0.2952 0.8539
vn 0.4738 0.5131 0.7157
vn 0.5315 0.3275 0.7812
vn 0.5730 0.1009 0.8133
vn 0.6070 -0.1481 0.7808
vn 0.1190 -0.9857 0.1190
vn 0.3761 -0.9154 0.1432
vn 0.6504 -0.7423 0.1609
vn 0.8734 -0.4563 0.1702
vn 0.1451 -0.9153 0.3756
vn 0.4264 -0.7983 0.4252
vn 0.6828 -0.5832 0.4401
vn 0.8532 -0.2970 0.4287
vn 0.1622 -0.7418 0.6507
vn 0.4411 -0.5818 0.6834
vn 0.6547 -0.3780 0.6547
vn 0.7807 -0.1485 0.6071
vn 0.7064 -0.0446 0.7064
vn 0.1432 0.4201 -0.8961
vn 0.3233 0.4793 -0.8159
vn 0.4735 0.5138 -0.7154
vn 0.6017 0.5251 -0.6018
vn 0.1616 0.1902 -0.9683
vn 0.3687 0.2741 -0.8882
vn 0.5309 0.3282 -0.7813
vn 0.6628 0.3469 -0.6635
vn 0.1708 -0.1158 -0.9785
vn 0.4043 0.0067 -0.9146
vn 0.5730 0.1009 -0.8133
vn 0.6999 0.1414 -0.7001
vn 0.8961 0.4201 -0.1432
vn 0.9689 0.1886 -0.1600
vn 0.9786 -0.1165 -0.1697
vn 0.8736 -0.4559 -0.1702
vn 0.8169 0.4779 -0.3231
vn 0.8890 0.2726 -0.3680
vn 0.9150 0.0071 -0.4034
vn 0.8539 -0.2952 -0.4286
vn 0.7157 0.5131 -0.4738
vn 0.7812 0.3275 -0.5315
vn 0.8134 0.1009 -0.5730
vn 0.7808 -0.1481 -0.6070
vn 0.1190 -0.9857 -0.1190
vn 0.1432 -0.9154 -0.3761
vn 0.1609 -0.7423 -0.6504
vn 0.1702 -0.4563 -0.8734
vn 0.3756 -0.9153 -0.1451
vn 0.4252 -0.7983 -0.4264
vn 0.4401 -0.5832 -0.6828
vn 0.4287 -0.2970 -0.8532
vn 0.6507 -0.7418 -0.1622
vn 0.6834 -0.5818 -0.4411
vn 0.6547 -0.3780 -0.6546
vn 0.6070 -0.1485 -0.7807
vn 0.7064 -0.0446 -0.7064
vn -0.7915 0.5983 0.1248
vn -0.7233 0.6591 0.2058
vn -0.6632 0.6429 0.3832
vn -0.5434 0.6325 0.5519
vn -0.7145 0.6771 0.1761
vn -0.7008 0.6882 0.1880
vn -0.6444 0.6886 0.3327
vn -0.5145 0.6768 0.5265
vn -0.6325 0.7630 0.1335
vn -0.6356 0.7543 0.1644
vn -0.5891 0.7555 0.2866
vn -0.4651 0.7517 0.4676
vn -0.1257 0.5995 0.7904
vn -0.1705 0.6681 0.7243
vn -0.1155 0.7652 0.6334
vn -0.0967 0.8563 0.5074
vn -0.2107 0.6710 0.7109
vn -0.2211 0.6700 0.7087
vn -0.1810 0.7572 0.6276
vn -0.1497 0.8631 0.4823
vn -0.3680 0.6595 0.6554
vn -0.3351 0.6730 0.6593
vn -0.2900 0.7532 0.5904
vn -0.2550 0.8579 0.4461
vn -0.1448 0.9788 0.1448
vn -0.2210 0.9579 0.1834
vn -0.3673 0.9214 0.1271
vn -0.5152 0.8516 0.0970
vn -0.1926 0.9542 0.2291
vn -0.1983 0.9539 0.2252
vn -0.3209 0.9287 0.1860
vn -0.4935 0.8566 0.1506
vn -0.1450 0.9221 0.3587
vn -0.1692 0.9321 0.3202
vn -0.2782 0.9184 0.2812
vn -0.4485 0.8566 0.2553
vn -0.3923 0.8320 0.3923
vn -0.7904 0.5995 -0.1257
vn -0.7242 0.6681 -0.1705
vn -0.6334 0.7651 -0.1155
vn -0.5074 0.8563 -0.0967
vn -0.7109 0.6710 -0.2107
vn -0.7087 0.6700 -0.2211
vn -0.6276 0.7572 -0.1810
vn -0.4823 0.8631 -0.1497
vn -0.6554 0.6595 -0.3680
vn -0.6594 0.6730 -0.3351
vn -0.5904 0.7532 -0.2900
vn -0.4461 0.8579 -0.2550
vn -0.1448 0.9788 -0.1448
vn -0.1834 0.9579 -0.2210
vn -0.1271 0.9214 -0.3673
vn -0.0970 0.8516 -0.5152
vn -0.2291 0.9542 -0.1926
vn -0.2252 0.9539 -0.1983
vn -0.1860 0.9287 -0.3209
vn -0.1506 0.8566 -0.4935
vn -0.3587 0.9221 -0.1450
vn -0.3202 0.9321 -0.1692
vn -0.2812 0.9184 -0.2782
vn -0.2553 0.8566 -0.4485
vn -0.1248 0.5983 -0.7915
vn -0.2058 0.6591 -0.7233
vn -0.3833 0.6429 -0.6631
vn -0.5519 0.6325 -0.5434
vn -0.1761 0.6771 -0.7145
vn -0.1880 0.6882 -0.7008
vn -0.3327 0.6886 -0.6444
vn -0.5265 0.6768 -0.5145
vn -0.1335 0.7630 -0.6325
vn -0.1645 0.7543 -0.6356
vn -0.2866 0.7555 -0.5891
vn -0.4676 0.7516 -0.4651
vn -0.3923 0.8320 -0.3923
vn 0.7904 0.5995 0.1257
vn 0.7242 0.6681 0.1705
vn 0.6334 0.7651 0.1155
vn 0.5074 0.8563 0.0967
vn 0.7109 0.6710 0.2107
vn 0.7087 0.6700 0.2211
vn 0.6276 0.7572 0.1810
vn 0.4823 0.8631 0.1497
vn 0.6554 0.6595 0.3680
vn 0.6594 0.6730 0.3351
vn 0.5904 0.7532 0.2900
vn 0.4461 0.8579 0.2550
vn 0.1448 0.9788 0.1448
vn 0.1834 0.9579 0.2210
vn 0.1271 0.9214 0.3673
vn 0.0970 0.8516 0.5152
vn 0.2291 0.9542 0.1926
vn 0.2252 0.9539 0.1983
vn 0.1860 0.9287 0.3209
vn 0.1506 0.8566 0.4935
vn 0.3587 0.9221 0.1450
vn 0.3202 0.9321 0.1692
vn 0.2812 0.9184 0.2782
vn 0.2553 0.8566 0.4485
vn 0.1248 0.5983 0.7915
vn 0.2058 0.6591 0.7233
vn 0.3833 0.6429 0.6631
vn 0.5519 0.6325 0.5434
vn 0.1761 0.6771 0.7145
vn 0.1880 0.6882 0.7008
vn 0.3327 0.6886 0.6444
vn 0.5265 0.6768 0.5145
vn 0.1335 0.7630 0.6325
vn 0.1645 0.7543 0.6356
vn 0.2866 0.7555 0.5891
vn 0.4676 0.7516 0.4651
vn 0.3923 0.8320 0.3923
vn 0.1257 0.5995 -0.7904
vn 0.1705 0.6681 -0.7243
vn 0.1155 0.7652 -0.6334
vn 0.0967 0.8563 -0.5074
vn 0.2107 0.6710 -0.7109
vn 0.2211 0.6700 -0.7087
vn 0.1810 0.7572 -0.6276
vn 0.1497 0.8631 -0.4823
vn 0.3680 0.6595 -0.6554
vn 0.3351 0.6730 -0.6593
vn 0.2900 0.7532 -0.5904
vn 0.2550 0.8579 -0.4461
vn 0.1448 0.9788 -0.1448
vn 0.2210 0.9579 -0.1834
vn 0.3673 0.9214 -0.1271
vn 0.5152 0.8516 -0.0970
vn 0.1926 0.9542 -0.2291
vn 0.1983 0.9539 -0.2252
vn 0.3209 0.9287 -0.1860
vn 0.4935 0.8566 -0.1506
vn 0.1450 0.9221 -0.3587
vn 0.1692 0.9321 -0.3202
vn 0.2782 0.9184 -0.2812
vn 0.4485 0.8566 -0.2553
vn 0.7915 0.5983 -0.1248
vn 0.7233 0.6591 -0.2058
vn 0.6632 0.6429 -0.3832
vn 0.5434 0.6325 -0.5519
vn 0.7145 0.6771 -0.1761
vn 0.7008 0.6882 -0.1880
vn 0.6444 0.6886 -0.3327
vn 0.5145 0.6768 -0.5265
vn 0.6325 0.7630 -0.1335
vn 0.6356 0.7543 -0.1644
vn 0.5891 0.7555 -0.2866
vn 0.4651 0.7517 -0.4676
vn 0.3923 0.8320 -0.3923
vn -0.1119 -0.9937 -0.0000
vn -0.3302 -0.9439 -0.0000
vn -0.5320 -0.8468 -0.0000
vn -0.7071 -0.7071 -0.0000
vn -0.8468 -0.5320 -0.0000
vn -0.9439 -0.3302 -0.0000
vn -0.9937 -0.1119 -0.0000
vn -0.1171 0.0001 0.9931
vn -0.3335 0.0002 0.9428
vn -0.5334 0.0003 0.8458
vn -0.7071 0.0003 0.7071
vn -0.8458 0.0003 0.5334
vn -0.9428 0.0002 0.3335
vn -0.9931 0.0001 0.1171
vn -0.1217 -0.9926 -0.0000
vn -0.3361 -0.9418 -0.0000
vn -0.5346 -0.8451 -0.0000
vn -0.8451 -0.5346 -0.0000
vn -0.9418 -0.3361 -0.0000
vn -0.9926 -0.1217 -0.0000
vn -0.1171 0.0001 -0.9931
vn -0.3335 0.0002 -0.9428
vn -0.5334 0.0003 -0.8458
vn -0.7071 0.0003 -0.7071
vn -0.8458 0.0003 -0.5334
vn -0.9428 0.0002 -0.3335
vn -0.9931 0.0001 -0.1171
vn -0.0000 -0.9937 -0.1119
vn -0.0000 -0.9439 -0.3302
vn -0.0000 -0.8468 -0.5320
vn -0.0000 -0.7071 -0.7071
vn -0.0000 -0.5320 -0.8468
vn -0.0000 -0.3302 -0.9439
vn -0.0000 -0.1119 -0.9937
vn -0.0000 -0.9926 -0.1217
vn -0.0000 -0.9418 -0.3361
vn -0.0000 -0.8451 -0.5346
vn -0.0000 -0.5346 -0.8451
vn -0.0000 -0.3361 -0.9418
vn -0.0000 -0.1217 -0.9926
vn 0.9931 0.0001 -0.1171
vn 0.9428 0.0002 -0.3335
vn 0.8458 0.0003 -0.5334
vn 0.7071 0.0003 -0.7071
vn 0.5334 0.0003 -0.8458
vn 0.3335 0.0002 -0.9428
vn 0.1171 0.0001 -0.9931
vn 0.1119 -0.9937 -0.0000
vn 0.3302 -0.9439 -0.0000
vn 0.5320 -0.8468 -0.0000
vn 0.7071 -0.7071 -0.0000
vn 0.8468 -0.5320 -0.0000
vn 0.9439 -0.3302 -0.0000
vn 0.9937 -0.1119 -0.0000
vn 0.1217 -0.9926 -0.0000
vn 0.3361 -0.9418 -0.0000
vn 0.5346 -0.8451 -0.0000
vn 0.8451 -0.5346 -0.0000
vn 0.9418 -0.3361 -0.0000
vn 0.9926 -0.1217 -0.0000
vn 0.1171 0.0001 0.9931
vn 0.3335 0.0002 0.9428
vn 0.5334 0.0003 0.8458
vn 0.7071 0.0003 0.7071
vn 0.8458 0.0003 0.5334
vn 0.9428 0.0002 0.3335
vn 0.9931 0.0001 0.1171
vn -0.0000 -0.9937 0.1119
vn -0.0000 -0.9439 0.3302
vn -0.0000 -0.8468 0.5320
vn -0.0000 -0.7071 0.7071
vn -0.0000 -0.5320 0.8468
vn -0.0000 -0.3302 0.9439
vn -0.0000 -0.1119 0.9937
vn -0.0000 -0.9926 0.1217
vn -0.0000 -0.9418 0.3361
vn -0.0000 -0.8451 0.5346
vn -0.0000 -0.5346 0.8451
vn -0.0000 -0.3361 0.9418
vn -0.0000 -0.1217 0.9926
vn -0.9312 0.3646 -0.0000
vn -0.9931 0.1169 -0.0000
vn -0.9798 -0.1998 -0.0000
vn -0.8449 -0.5349 -0.0000
vn -0.6049 -0.7963 -0.0000
vn -0.3385 -0.9410 -0.0000
vn -0.1022 -0.9948 -0.0000
vn -0.0000 0.3646 -0.9312
vn -0.0000 0.1169 -0.9931
vn -0.0000 -0.1998 -0.9798
vn -0.0000 -0.5349 -0.8449
vn -0.0000 -0.7963 -0.6049
vn -0.0000 -0.9410 -0.3385
vn -0.0000 -0.9948 -0.1022
vn 0.9312 0.3646 -0.0000
vn 0.9931 0.1169 -0.0000
vn 0.9798 -0.1998 -0.0000
vn 0.8449 -0.5349 -0.0000
vn 0.6049 -0.7963 -0.0000
vn 0.3385 -0.9410 -0.0000
vn 0.1022 -0.9948 -0.0000
vn -0.0000 0.3646 0.9312
vn -0.0000 0.1169 0.9931
vn -0.0000 -0.1998 0.9798
vn -0.0000 -0.5349 0.8449
vn -0.0000 -0.7963 0.6049
vn -0.0000 -0.9410 0.3385
vn -0.0000 -0.9948 0.1022
vn -0.1048 0.9945 -0.0000
vn -0.2695 0.9630 -0.0000
vn -0.4104 0.9119 -0.0000
vn -0.5349 0.8449 -0.0000
vn -0.6488 0.7610 -0.0000
vn -0.7552 0.6555 -0.0000
vn -0.8542 0.5200 -0.0000
vn -0.0000 0.9945 -0.1048
vn -0.0000 0.9630 -0.2695
vn -0.0000 0.9119 -0.4104
vn -0.0000 0.8449 -0.5349
vn -0.0000 0.7610 -0.6488
vn -0.0000 0.6555 -0.7552
vn -0.0000 0.5200 -0.8542
vn 0.1048 0.9945 -0.0000
vn 0.2695 0.9630 -0.0000
vn 0.4104 0.9119 -0.0000
vn 0.5349 0.8449 -0.0000
vn 0.6488 0.7610 -0.0000
vn 0.7552 0.6555 -0.0000
vn 0.8542 0.5200 -0.0000
vn -0.0000 0.9945 0.1048
vn -0.0000 0.9630 0.2695
vn -0.0000 0.9119 0.4104
vn -0.0000 0.8449 0.5349
vn -0.0000 0.7610 0.6488
vn -0.0000 0.6555 0.7552
vn -0.0000 0.5200 0.8542
vn 0.1210 0.4698 -0.8744
vn 0.2984 0.5172 -0.8022
vn 0.4541 0.5436 -0.7059
vn 0.5896 0.5520 -0.5896
vn 0.7059 0.5436 -0.4541
vn 0.8022 0.5172 -0.2984
vn 0.8745 0.4698 -0.1210
vn 0.1210 0.4698 0.8744
vn 0.2984 0.5172 0.8022
vn 0.4541 0.5436 0.7059
vn 0.5896 0.5520 0.5896
vn 0.7059 0.5436 0.4541
vn 0.8022 0.5172 0.2984
vn 0.8745 0.4698 0.1210
vn -0.1210 0.4698 0.8744
vn -0.2984 0.5172 0.8022
vn -0.4541 0.5436 0.7059
vn -0.5896 0.5520 0.5896
vn -0.7059 0.5436 0.4541
vn -0.8022 0.5172 0.2984
vn -0.8745 0.4698 0.1210
vn -0.1210 0.4698 -0.8744
vn -0.2984 0.5172 -0.8022
vn -0.4541 0.5436 -0.7059
vn -0.5896 0.5520 -0.5896
vn -0.7059 0.5436 -0.4541
vn -0.8022 0.5172 -0.2984
vn -0.8745 0.4698 -0.1210
vn -0.0000 -1.0000 -0.0000
vn -1.0000 -0.0000 -0.0000
vn -0.0000 -0.0000 1.0000
vn 0.0001 -1.0000 -0.0000
vn -0.0000 -0.0000 -1.0000
vn 1.0000 -0.0000 -0.0000
vn -0.0001 -1.0000 -0.0000
vn -0.9039 0.4277 -0.0000
vn -0.0000 0.4277 0.9039
vn -0.0000 0.4277 -0.9039
vn 0.9039 0.4277 -0.0000
vn -0.0000 1.0000 -0.0000
vt 0.237500 0.637500
vt 0.237500 0.662522
vt 0.211676 0.663594
vt 0.212479 0.637500
vt 0.237500 0.686301
vt 0.211783 0.687152
vt 0.237500 0.707639
vt 0.212108 0.706661
vt 0.237500 0.750000
vt 0.212030 0.750000
vt 0.187862 0.663439
vt 0.188699 0.637500
vt 0.189268 0.685798
vt 0.191054 0.703020
vt 0.191028 0.750000
vt 0.168228 0.662970
vt 0.167361 0.637500
vt 0.171964 0.683972
vt 0.176002 0.698998
vt 0.176002 0.750000
vt 0.388125 0.887500
vt 0.388125 0.912521
vt 0.385112 0.913594
vt 0.385206 0.887500
vt 0.388125 0.936301
vt 0.385125 0.937152
vt 0.388125 1.000000
vt 0.385163 1.000000
vt 0.388125 0.000000
vt 0.388125 0.042361
vt 0.385154 0.043228
vt 0.385163 0.000000
vt 0.382334 0.913439
vt 0.382432 0.887500
vt 0.382498 0.935798
vt 0.382706 1.000000
vt 0.382703 0.046964
vt 0.382706 0.000000
vt 0.375000 0.912970
vt 0.375000 0.887500
vt 0.375000 0.933972
vt 0.375000 0.948998
vt 0.375000 0.051002
vt 0.375000 0.000000
vt 0.388125 0.112500
vt 0.385206 0.112500
vt 0.385081 0.086676
vt 0.388125 0.087479
vt 0.382432 0.112500
vt 0.382332 0.086783
vt 0.375000 0.112500
vt 0.375000 0.087108
vt 0.125000 0.637500
vt 0.125000 0.662892
vt 0.385099 0.062862
vt 0.388125 0.063699
vt 0.382490 0.064268
vt 0.375000 0.066054
vt 0.125000 0.683946
vt 0.125000 0.698998
vt 0.611875 0.887500
vt 0.614777 0.915424
vt 0.614760 0.935683
vt 0.611875 0.912463
vt 0.617537 0.947518
vt 0.617467 0.960444
vt 0.620016 0.982211
vt 0.619816 0.986617
vt 0.625000 0.654665
vt 0.625000 -0.007662
vt 0.614732 0.953853
vt 0.611875 0.936109
vt 0.617345 0.972207
vt 0.619507 0.990711
vt 0.625000 -0.003905
vt 0.614715 1.000000
vt 0.611875 1.000000
vt 0.617226 1.000000
vt 0.619129 1.000000
vt 0.625000 0.000000
vt 0.625000 0.001342
vt 0.625000 -0.000285
vt 0.625000 -0.001341
vt 0.625000 0.005275
vt 0.625000 0.002911
vt 0.625000 0.012469
vt 0.625000 0.008504
vt 0.620016 0.017789
vt 0.619804 0.013112
vt 0.625000 -0.003282
vt 0.625000 -0.005181
vt 0.625000 -0.000077
vt 0.625000 0.004332
vt 0.619504 0.009235
vt 0.625000 -0.011065
vt 0.623444 -0.001905
vt 0.619129 0.005710
vt 0.611875 0.112500
vt 0.611875 0.087537
vt 0.614730 0.063686
vt 0.614777 0.084576
vt 0.611875 0.063891
vt 0.614726 0.045741
vt 0.611875 0.042692
vt 0.614715 0.030076
vt 0.611875 0.000000
vt 0.614715 0.000000
vt 0.617428 0.039034
vt 0.617537 0.052482
vt 0.617337 0.027632
vt 0.617226 0.017712
vt 0.617226 0.000000
vt 0.619129 0.000000
vt 0.237500 0.612500
vt 0.212479 0.612500
vt 0.211406 0.586676
vt 0.237500 0.587479
vt 0.188699 0.612500
vt 0.187848 0.586783
vt 0.167361 0.612500
vt 0.168339 0.587108
vt 0.125000 0.612500
vt 0.125000 0.587030
vt 0.211561 0.562862
vt 0.237500 0.563699
vt 0.189202 0.564268
vt 0.171980 0.566054
vt 0.125000 0.566028
vt 0.212030 0.543228
vt 0.237500 0.542361
vt 0.191028 0.546964
vt 0.176002 0.551002
vt 0.125000 0.551002
vt 0.388125 0.137500
vt 0.388125 0.162521
vt 0.385112 0.163594
vt 0.385206 0.137500
vt 0.388125 0.186301
vt 0.385125 0.187152
vt 0.388125 0.207639
vt 0.385163 0.206661
vt 0.388125 0.292361
vt 0.385154 0.293228
vt 0.382334 0.163439
vt 0.382432 0.137500
vt 0.382498 0.185798
vt 0.382706 0.203020
vt 0.382703 0.296964
vt 0.375000 0.162970
vt 0.375000 0.137500
vt 0.375000 0.183972
vt 0.375000 0.198998
vt 0.375000 0.301002
vt 0.388125 0.362500
vt 0.385206 0.362500
vt 0.385081 0.336676
vt 0.388125 0.337478
vt 0.382432 0.362500
vt 0.382332 0.336783
vt 0.375000 0.362500
vt 0.375000 0.337108
vt 0.237500 0.500000
vt 0.212108 0.500000
vt 0.385099 0.312862
vt 0.388125 0.313699
vt 0.382490 0.314268
vt 0.375000 0.316054
vt 0.191054 0.500000
vt 0.176002 0.500000
vt 0.625000 0.250000
vt 0.625000 0.251343
vt 0.625000 0.249715
vt 0.625000 0.248658
vt 0.625000 0.255275
vt 0.625000 0.252911
vt 0.625000 0.262469
vt 0.625000 0.258504
vt 0.620016 0.267789
vt 0.619804 0.263112
vt 0.625000 0.246718
vt 0.625000 0.244772
vt 0.625000 0.249923
vt 0.625000 0.254332
vt 0.619504 0.259235
vt 0.625000 0.242338
vt 0.625000 0.238233
vt 0.625000 0.246095
vt 0.619129 0.255710
vt 0.611875 0.362500
vt 0.611875 0.337537
vt 0.614730 0.313686
vt 0.614777 0.334576
vt 0.611875 0.313891
vt 0.614726 0.295741
vt 0.611875 0.292692
vt 0.614715 0.280076
vt 0.611875 0.207308
vt 0.614715 0.219821
vt 0.617428 0.289034
vt 0.617537 0.302482
vt 0.617337 0.277632
vt 0.617226 0.267712
vt 0.617226 0.232267
vt 0.619129 0.244290
vt 0.611875 0.137500
vt 0.614777 0.165424
vt 0.614760 0.185683
vt 0.611875 0.162463
vt 0.617537 0.197518
vt 0.617467 0.210444
vt 0.620016 0.232211
vt 0.619816 0.236617
vt 0.614732 0.203853
vt 0.611875 0.186109
vt 0.617345 0.222208
vt 0.619507 0.240711
vt 0.262500 0.637500
vt 0.287522 0.637500
vt 0.288594 0.663324
vt 0.262500 0.662522
vt 0.311301 0.637500
vt 0.312152 0.663217
vt 0.332639 0.637500
vt 0.331661 0.662892
vt 0.379942 0.637500
vt 0.380043 0.662970
vt 0.288439 0.687138
vt 0.262500 0.686301
vt 0.310798 0.685732
vt 0.328020 0.683946
vt 0.380479 0.683972
vt 0.287970 0.706772
vt 0.262500 0.707639
vt 0.308972 0.703036
vt 0.323998 0.698998
vt 0.369178 0.698998
vt 0.388125 0.637500
vt 0.388125 0.662521
vt 0.385112 0.663594
vt 0.385206 0.637500
vt 0.388125 0.686301
vt 0.385125 0.687152
vt 0.388125 0.707639
vt 0.385163 0.706661
vt 0.388125 0.792361
vt 0.385154 0.793228
vt 0.382334 0.663439
vt 0.382432 0.637500
vt 0.382498 0.685798
vt 0.382706 0.703020
vt 0.382703 0.796964
vt 0.349499 0.775501
vt 0.388125 0.862500
vt 0.385206 0.862500
vt 0.385081 0.836676
vt 0.388125 0.837479
vt 0.382432 0.862500
vt 0.382332 0.836783
vt 0.318750 0.806250
vt 0.331446 0.793554
vt 0.385099 0.812863
vt 0.388125 0.813699
vt 0.382490 0.814268
vt 0.341973 0.783027
vt 0.625000 0.750000
vt 0.625000 0.751343
vt 0.625000 0.749715
vt 0.625000 0.748658
vt 0.625000 0.755275
vt 0.625000 0.752911
vt 0.625000 0.762469
vt 0.625000 0.758503
vt 0.620016 0.767789
vt 0.619804 0.763112
vt 0.625000 0.746718
vt 0.625000 0.744772
vt 0.625000 0.749923
vt 0.625000 0.754332
vt 0.619504 0.759235
vt 0.625000 0.742338
vt 0.625000 0.738233
vt 0.625000 0.746095
vt 0.619129 0.755710
vt 0.611875 0.862500
vt 0.611875 0.837538
vt 0.614730 0.813686
vt 0.614777 0.834576
vt 0.611875 0.813891
vt 0.614726 0.795741
vt 0.611875 0.792692
vt 0.614715 0.780076
vt 0.611875 0.707308
vt 0.614715 0.719821
vt 0.617428 0.789034
vt 0.617537 0.802482
vt 0.617337 0.777632
vt 0.617226 0.767712
vt 0.617226 0.732267
vt 0.619129 0.744290
vt 0.611875 0.637500
vt 0.614777 0.665424
vt 0.614760 0.685683
vt 0.611875 0.662463
vt 0.617537 0.697518
vt 0.617467 0.710444
vt 0.620016 0.732211
vt 0.619816 0.736616
vt 0.614732 0.703853
vt 0.611875 0.686109
vt 0.617345 0.722207
vt 0.619507 0.740711
vt 0.262500 0.612500
vt 0.262500 0.587478
vt 0.288324 0.586406
vt 0.287522 0.612500
vt 0.262500 0.563699
vt 0.288217 0.562848
vt 0.262500 0.542361
vt 0.287892 0.543339
vt 0.318750 0.443750
vt 0.331485 0.456485
vt 0.312138 0.586561
vt 0.311301 0.612500
vt 0.310732 0.564202
vt 0.308946 0.546980
vt 0.341986 0.466986
vt 0.331772 0.587030
vt 0.332639 0.612500
vt 0.328036 0.566028
vt 0.323998 0.551002
vt 0.349499 0.474499
vt 0.388125 0.387500
vt 0.388125 0.412521
vt 0.385112 0.413594
vt 0.385206 0.387500
vt 0.388125 0.436301
vt 0.385125 0.437152
vt 0.388125 0.457639
vt 0.385163 0.456661
vt 0.388125 0.542361
vt 0.385154 0.543228
vt 0.382334 0.413439
vt 0.382432 0.387500
vt 0.382498 0.435798
vt 0.382706 0.453020
vt 0.382703 0.546964
vt 0.369178 0.551002
vt 0.388125 0.612500
vt 0.385206 0.612500
vt 0.385081 0.586676
vt 0.388125 0.587479
vt 0.382432 0.612500
vt 0.382332 0.586783
vt 0.379942 0.612500
vt 0.380056 0.587108
vt 0.385099 0.562862
vt 0.388125 0.563699
vt 0.382490 0.564268
vt 0.380481 0.566054
vt 0.625000 0.500000
vt 0.625000 0.501342
vt 0.625000 0.499715
vt 0.625000 0.498658
vt 0.625000 0.505275
vt 0.625000 0.502911
vt 0.625000 0.512469
vt 0.625000 0.508504
vt 0.620016 0.517789
vt 0.619804 0.513112
vt 0.625000 0.496718
vt 0.625000 0.494772
vt 0.625000 0.499923
vt 0.625000 0.504332
vt 0.619504 0.509235
vt 0.625000 0.492338
vt 0.625000 0.488233
vt 0.625000 0.496095
vt 0.619129 0.505710
vt 0.611875 0.612500
vt 0.611875 0.587537
vt 0.614730 0.563686
vt 0.614777 0.584576
vt 0.611875 0.563891
vt 0.614726 0.545741
vt 0.611875 0.542692
vt 0.614715 0.530076
vt 0.611875 0.457308
vt 0.614715 0.469821
vt 0.617428 0.539034
vt 0.617537 0.552482
vt 0.617337 0.527632
vt 0.617226 0.517712
vt 0.617226 0.482267
vt 0.619129 0.494290
vt 0.611875 0.387500
vt 0.614777 0.415424
vt 0.614760 0.435683
vt 0.611875 0.412463
vt 0.617537 0.447518
vt 0.617467 0.460444
vt 0.620016 0.482211
vt 0.619816 0.486617
vt 0.614732 0.453853
vt 0.611875 0.436109
vt 0.617345 0.472207
vt 0.619507 0.490711
vt 0.625000 0.051117
vt 0.625000 0.049025
vt 0.625000 0.038081
vt 0.625000 0.040244
vt 0.625000 0.046684
vt 0.625000 0.036072
vt 0.625000 0.044218
vt 0.625000 0.034126
vt 0.625000 0.364315
vt 0.625000 1.020313
vt 0.625000 0.027443
vt 0.625000 0.029289
vt 0.625000 0.026365
vt 0.625000 0.025465
vt 0.625000 1.008696
vt 0.625000 0.017943
vt 0.625000 0.018661
vt 0.625000 0.018317
vt 0.625000 0.015242
vt 0.625000 1.000000
vt 0.625000 0.988662
vt 0.625000 0.999877
vt 0.625000 1.011607
vt 0.625000 0.978505
vt 0.625000 0.989385
vt 0.625000 0.969931
vt 0.625000 0.981045
vt 0.625000 0.955782
vt 0.625000 0.965919
vt 0.625000 1.010885
vt 0.625000 1.022725
vt 0.625000 0.999970
vt 0.625000 0.991588
vt 0.625000 0.974548
vt 0.625000 1.032807
vt 0.625000 0.981138
vt 0.625000 0.948883
vt 0.625000 0.959756
vt 0.625000 0.962015
vt 0.625000 0.950975
vt 0.625000 0.970711
vt 0.625000 0.972549
vt 0.625000 0.964020
vt 0.625000 0.953316
vt 0.625000 0.973660
vt 0.625000 0.004697
vt 0.625000 0.198883
vt 0.625000 0.209756
vt 0.625000 0.212015
vt 0.625000 0.200975
vt 0.625000 0.220711
vt 0.625000 0.222549
vt 0.625000 0.231339
vt 0.625000 0.231996
vt 0.625000 0.268661
vt 0.625000 0.267943
vt 0.625000 0.214020
vt 0.625000 0.203316
vt 0.625000 0.223660
vt 0.625000 0.231672
vt 0.625000 0.268317
vt 0.625000 0.215919
vt 0.625000 0.205782
vt 0.625000 0.224548
vt 0.625000 0.231138
vt 0.625000 0.268862
vt 0.625000 0.301117
vt 0.625000 0.299025
vt 0.625000 0.288081
vt 0.625000 0.290244
vt 0.625000 0.296684
vt 0.625000 0.286072
vt 0.625000 0.294218
vt 0.625000 0.284126
vt 0.625000 0.281438
vt 0.625000 0.270313
vt 0.625000 0.277443
vt 0.625000 0.279289
vt 0.625000 0.276365
vt 0.625000 0.275465
vt 0.625000 0.258696
vt 0.625000 0.238662
vt 0.625000 0.249877
vt 0.625000 0.261472
vt 0.625000 0.228505
vt 0.625000 0.239385
vt 0.625000 0.219931
vt 0.625000 0.231045
vt 0.625000 0.260884
vt 0.625000 0.272110
vt 0.625000 0.249970
vt 0.625000 0.241588
vt 0.625000 0.698883
vt 0.625000 0.709756
vt 0.625000 0.712015
vt 0.625000 0.700975
vt 0.625000 0.720711
vt 0.625000 0.722549
vt 0.625000 0.731339
vt 0.625000 0.731996
vt 0.625000 0.768661
vt 0.625000 0.767943
vt 0.625000 0.714020
vt 0.625000 0.703316
vt 0.625000 0.723660
vt 0.625000 0.731672
vt 0.625000 0.768317
vt 0.625000 0.715919
vt 0.625000 0.705782
vt 0.625000 0.724548
vt 0.625000 0.731138
vt 0.625000 0.768862
vt 0.625000 0.801117
vt 0.625000 0.799025
vt 0.625000 0.788081
vt 0.625000 0.790244
vt 0.625000 0.796684
vt 0.625000 0.786072
vt 0.625000 0.794218
vt 0.625000 0.784126
vt 0.625000 0.781438
vt 0.625000 0.770313
vt 0.625000 0.777443
vt 0.625000 0.779289
vt 0.625000 0.776365
vt 0.625000 0.775465
vt 0.625000 0.758696
vt 0.625000 0.738662
vt 0.625000 0.749877
vt 0.625000 0.761472
vt 0.625000 0.728505
vt 0.625000 0.739385
vt 0.625000 0.719931
vt 0.625000 0.731045
vt 0.625000 0.760885
vt 0.625000 0.772110
vt 0.625000 0.749970
vt 0.625000 0.741588
vt 0.625000 0.448883
vt 0.625000 0.459756
vt 0.625000 0.462015
vt 0.625000 0.450975
vt 0.625000 0.470711
vt 0.625000 0.472549
vt 0.625000 0.481339
vt 0.625000 0.481996
vt 0.625000 0.518661
vt 0.625000 0.517943
vt 0.625000 0.464020
vt 0.625000 0.453316
vt 0.625000 0.473660
vt 0.625000 0.481672
vt 0.625000 0.518317
vt 0.625000 0.465919
vt 0.625000 0.455782
vt 0.625000 0.474548
vt 0.625000 0.481138
vt 0.625000 0.518862
vt 0.625000 0.551117
vt 0.625000 0.549025
vt 0.625000 0.538081
vt 0.625000 0.540244
vt 0.625000 0.546684
vt 0.625000 0.536072
vt 0.625000 0.544218
vt 0.625000 0.534126
vt 0.625000 0.531438
vt 0.625000 0.520313
vt 0.625000 0.527443
vt 0.625000 0.529289
vt 0.625000 0.526365
vt 0.625000 0.525465
vt 0.625000 0.508696
vt 0.625000 0.488662
vt 0.625000 0.499877
vt 0.625000 0.511472
vt 0.625000 0.478505
vt 0.625000 0.489385
vt 0.625000 0.469931
vt 0.625000 0.481045
vt 0.625000 0.510884
vt 0.625000 0.522110
vt 0.625000 0.499970
vt 0.625000 0.491588
vt 0.625000 0.090717
vt 0.625000 0.069780
vt 0.625000 0.070760
vt 0.625000 0.092406
vt 0.625000 0.048815
vt 0.625000 0.049699
vt 0.625000 0.029344
vt 0.625000 0.030890
vt 0.625000 0.072731
vt 0.625000 0.095314
vt 0.625000 0.051566
vt 0.625000 0.033637
vt 0.625000 0.075811
vt 0.625000 0.099679
vt 0.625000 0.054332
vt 0.625000 0.037593
vt 0.625000 0.909283
vt 0.625000 0.907594
vt 0.625000 0.929165
vt 0.625000 0.930220
vt 0.625000 0.904686
vt 0.625000 0.927318
vt 0.625000 0.900321
vt 0.625000 0.924232
vt 0.625000 0.894759
vt 0.625000 0.920550
vt 0.625000 0.950147
vt 0.625000 0.951185
vt 0.625000 0.948413
vt 0.625000 0.945675
vt 0.625000 0.943961
vt 0.625000 1.000000
vt 0.625000 0.997489
vt 0.752177 0.627177
vt 0.780768 0.632362
vt 0.785861 0.660801
vt 0.757362 0.655768
vt 0.810531 0.638320
vt 0.813530 0.665495
vt 0.875000 0.644759
vt 0.875000 0.670500
vt 0.625000 0.105241
vt 0.625000 0.079500
vt 0.790580 0.688528
vt 0.763320 0.685531
vt 0.816167 0.691152
vt 0.875000 0.693951
vt 0.625000 0.056049
vt 0.795550 0.750000
vt 0.769759 0.750000
vt 0.818961 0.750000
vt 0.875000 0.713039
vt 0.625000 0.036961
vt 0.625000 0.159283
vt 0.625000 0.157594
vt 0.625000 0.179165
vt 0.625000 0.180220
vt 0.625000 0.154686
vt 0.625000 0.177318
vt 0.625000 0.150321
vt 0.625000 0.174232
vt 0.625000 0.144759
vt 0.625000 0.170550
vt 0.625000 0.200147
vt 0.625000 0.201185
vt 0.625000 0.198413
vt 0.625000 0.195675
vt 0.625000 0.193961
vt 0.625000 0.219080
vt 0.625000 0.220656
vt 0.625000 0.216356
vt 0.625000 0.212407
vt 0.625000 0.226196
vt 0.752177 0.622823
vt 0.757362 0.594232
vt 0.785801 0.589139
vt 0.780768 0.617638
vt 0.763320 0.564469
vt 0.790495 0.561470
vt 0.769759 0.500000
vt 0.795500 0.500000
vt 0.625000 0.355241
vt 0.625000 0.349679
vt 0.625000 0.325811
vt 0.625000 0.329500
vt 0.813528 0.584420
vt 0.810531 0.611680
vt 0.816152 0.558833
vt 0.818951 0.500000
vt 0.625000 0.304332
vt 0.625000 0.306049
vt 0.875000 0.579450
vt 0.875000 0.605241
vt 0.875000 0.556039
vt 0.875000 0.536961
vt 0.625000 0.271514
vt 0.625000 0.340717
vt 0.625000 0.319780
vt 0.625000 0.320760
vt 0.625000 0.342406
vt 0.625000 0.298815
vt 0.625000 0.299699
vt 0.625000 0.279344
vt 0.625000 0.280890
vt 0.625000 0.322731
vt 0.625000 0.345314
vt 0.625000 0.301566
vt 0.625000 0.283637
vt 0.625000 0.659283
vt 0.625000 0.657594
vt 0.625000 0.679165
vt 0.625000 0.680220
vt 0.625000 0.654686
vt 0.625000 0.677318
vt 0.625000 0.650321
vt 0.625000 0.674232
vt 0.659997 0.644759
vt 0.660119 0.670550
vt 0.625000 0.700147
vt 0.625000 0.701185
vt 0.625000 0.698413
vt 0.625000 0.695675
vt 0.660945 0.693961
vt 0.625000 0.719080
vt 0.625000 0.720656
vt 0.625000 0.716356
vt 0.625000 0.728487
vt 0.643481 0.768481
vt 0.747823 0.627177
vt 0.742638 0.655768
vt 0.714199 0.660861
vt 0.719232 0.632362
vt 0.736680 0.685531
vt 0.709505 0.688530
vt 0.677621 0.802621
vt 0.664750 0.789750
vt 0.625000 0.849679
vt 0.625000 0.825811
vt 0.686472 0.665580
vt 0.689469 0.638320
vt 0.683848 0.691167
vt 0.653025 0.778025
vt 0.625000 0.804332
vt 0.625000 0.787593
vt 0.625000 0.840717
vt 0.625000 0.819780
vt 0.625000 0.820760
vt 0.625000 0.842406
vt 0.625000 0.798815
vt 0.625000 0.799699
vt 0.625000 0.779344
vt 0.625000 0.780890
vt 0.625000 0.822731
vt 0.625000 0.845314
vt 0.625000 0.801566
vt 0.625000 0.783637
vt 0.625000 0.409283
vt 0.625000 0.407594
vt 0.625000 0.429165
vt 0.625000 0.430220
vt 0.625000 0.404686
vt 0.625000 0.427318
vt 0.625000 0.400321
vt 0.625000 0.424232
vt 0.677621 0.447379
vt 0.664725 0.460275
vt 0.625000 0.450147
vt 0.625000 0.451185
vt 0.625000 0.448413
vt 0.625000 0.445675
vt 0.653020 0.471980
vt 0.625000 0.469080
vt 0.625000 0.470656
vt 0.625000 0.466356
vt 0.625000 0.462407
vt 0.643481 0.481519
vt 0.747823 0.622823
vt 0.719232 0.617638
vt 0.714139 0.589199
vt 0.742638 0.594232
vt 0.689469 0.611680
vt 0.686470 0.584505
vt 0.659997 0.605241
vt 0.660181 0.579500
vt 0.625000 0.599679
vt 0.625000 0.575811
vt 0.709420 0.561472
vt 0.736680 0.564469
vt 0.683833 0.558848
vt 0.660958 0.556049
vt 0.625000 0.554332
vt 0.625000 0.521514
vt 0.625000 0.590717
vt 0.625000 0.569780
vt 0.625000 0.570760
vt 0.625000 0.592406
vt 0.625000 0.548815
vt 0.625000 0.549699
vt 0.625000 0.529344
vt 0.625000 0.530890
vt 0.625000 0.572731
vt 0.625000 0.595314
vt 0.625000 0.551566
vt 0.625000 0.533637
vt 0.625000 0.998657
vt 0.625000 0.994725
vt 0.625000 0.021495
vt 0.625000 0.011338
s 0
f 1/1/1 4/2/1 8/3/1 7/4/1
f 4/2/2 5/5/2 9/6/2 8/3/2
f 5/5/3 6/7/3 10/8/3 9/6/3
f 6/7/4 30/9/4 31/10/4 10/8/4
f 7/4/5 8/3/5 12/11/5 11/12/5
f 8/3/6 9/6/6 13/13/6 12/11/6
f 9/6/7 10/8/7 14/14/7 13/13/7
f 10/8/8 31/10/8 32/15/8 14/14/8
f 11/12/9 12/11/9 16/16/9 15/17/9
f 12/11/10 13/13/10 17/18/10 16/16/10
f 13/13/11 14/14/11 18/19/11 17/18/11
f 14/14/12 32/15/12 33/20/12 18/19/12
f 2/21/13 19/22/13 23/23/13 22/24/13
f 19/22/14 20/25/14 24/26/14 23/23/14
f 20/25/15 21/27/15 25/28/15 24/26/15
f 21/29/16 45/30/16 46/31/16 25/32/16
f 22/24/17 23/23/17 27/33/17 26/34/17
f 23/23/18 24/26/18 28/35/18 27/33/18
f 24/26/19 25/28/19 29/36/19 28/35/19
f 25/32/20 46/31/20 47/37/20 29/38/20
f 26/34/21 27/33/21 31/39/21 30/40/21
f 27/33/22 28/35/22 32/41/22 31/39/22
f 28/35/23 29/36/23 33/42/23 32/41/23
f 29/38/24 47/37/24 48/43/24 33/44/24
f 3/45/25 34/46/25 38/47/25 37/48/25
f 34/46/26 35/49/26 39/50/26 38/47/26
f 35/49/27 36/51/27 40/52/27 39/50/27
f 36/53/28 15/17/28 16/16/28 40/54/28
f 37/48/29 38/47/29 42/55/29 41/56/29
f 38/47/30 39/50/30 43/57/30 42/55/30
f 39/50/31 40/52/31 44/58/31 43/57/31
f 40/54/32 16/16/32 17/18/32 44/59/32
f 41/56/33 42/55/33 46/31/33 45/30/33
f 42/55/34 43/57/34 47/37/34 46/31/34
f 43/57/35 44/58/35 48/43/35 47/37/35
f 44/59/36 17/18/36 18/19/36 48/60/36
f 18/19/37 33/20/37 48/60/37
f 49/61/38 52/62/38 56/63/38 55/64/38
f 52/62/39 53/65/39 57/66/39 56/63/39
f 53/65/40 54/67/40 58/68/40 57/66/40
f 54/67/41 78/69/41 79/70/41 58/68/41
f 55/64/42 56/63/42 60/71/42 59/72/42
f 56/63/43 57/66/43 61/73/43 60/71/43
f 57/66/44 58/68/44 62/74/44 61/73/44
f 58/68/45 79/70/45 80/75/45 62/74/45
f 59/72/46 60/71/46 64/76/46 63/77/46
f 60/71/47 61/73/47 65/78/47 64/76/47
f 61/73/48 62/74/48 66/79/48 65/78/48
f 62/74/49 80/75/49 81/80/49 66/79/49
f 50/80/50 67/81/50 71/82/50 70/83/50
f 67/81/51 68/84/51 72/85/51 71/82/51
f 68/84/52 69/86/52 73/87/52 72/85/52
f 69/86/53 93/88/53 94/89/53 73/87/53
f 70/83/54 71/82/54 75/90/54 74/91/54
f 71/82/55 72/85/55 76/92/55 75/90/55
f 72/85/56 73/87/56 77/93/56 76/92/56
f 73/87/57 94/89/57 95/94/57 77/93/57
f 74/91/58 75/90/58 79/70/58 78/95/58
f 75/90/59 76/92/59 80/75/59 79/70/59
f 76/92/60 77/93/60 81/96/60 80/75/60
f 77/93/61 95/94/61 96/97/61 81/96/61
f 51/98/62 82/99/62 86/100/62 85/101/62
f 82/99/63 83/102/63 87/103/63 86/100/63
f 83/102/64 84/104/64 88/105/64 87/103/64
f 84/104/65 63/106/65 64/107/65 88/105/65
f 85/101/66 86/100/66 90/108/66 89/109/66
f 86/100/67 87/103/67 91/110/67 90/108/67
f 87/103/68 88/105/68 92/111/68 91/110/68
f 88/105/69 64/107/69 65/112/69 92/111/69
f 89/109/70 90/108/70 94/89/70 93/88/70
f 90/108/71 91/110/71 95/94/71 94/89/71
f 91/110/72 92/111/72 96/97/72 95/94/72
f 92/111/73 65/112/73 66/113/73 96/97/73
f 66/113/74 81/96/74 96/97/74
f 97/114/75 100/115/75 104/116/75 103/117/75
f 100/115/76 101/118/76 105/119/76 104/116/76
f 101/118/77 102/120/77 106/121/77 105/119/77
f 102/120/78 126/122/78 127/123/78 106/121/78
f 103/117/79 104/116/79 108/124/79 107/125/79
f 104/116/80 105/119/80 109/126/80 108/124/80
f 105/119/81 106/121/81 110/127/81 109/126/81
f 106/121/82 127/123/82 128/128/82 110/127/82
f 107/125/83 108/124/83 112/129/83 111/130/83
f 108/124/84 109/126/84 113/131/84 112/129/84
f 109/126/85 110/127/85 114/132/85 113/131/85
f 110/127/86 128/128/86 129/133/86 114/132/86
f 98/134/87 115/135/87 119/136/87 118/137/87
f 115/135/88 116/138/88 120/139/88 119/136/88
f 116/138/89 117/140/89 121/141/89 120/139/89
f 117/140/90 141/142/90 142/143/90 121/141/90
f 118/137/91 119/136/91 123/144/91 122/145/91
f 119/136/92 120/139/92 124/146/92 123/144/92
f 120/139/93 121/141/93 125/147/93 124/146/93
f 121/141/94 142/143/94 143/148/94 125/147/94
f 122/145/95 123/144/95 127/149/95 126/150/95
f 123/144/96 124/146/96 128/151/96 127/149/96
f 124/146/97 125/147/97 129/152/97 128/151/97
f 125/147/98 143/148/98 144/153/98 129/152/98
f 99/154/99 130/155/99 134/156/99 133/157/99
f 130/155/100 131/158/100 135/159/100 134/156/100
f 131/158/101 132/160/101 136/161/101 135/159/101
f 132/162/102 111/130/102 112/129/102 136/163/102
f 133/157/103 134/156/103 138/164/103 137/165/103
f 134/156/104 135/159/104 139/166/104 138/164/104
f 135/159/105 136/161/105 140/167/105 139/166/105
f 136/163/106 112/129/106 113/131/106 140/168/106
f 137/165/107 138/164/107 142/143/107 141/142/107
f 138/164/108 139/166/108 143/148/108 142/143/108
f 139/166/109 140/167/109 144/153/109 143/148/109
f 140/168/110 113/131/110 114/132/110 144/169/110
f 114/132/111 129/133/111 144/169/111
f 145/170/112 148/171/112 152/172/112 151/173/112
f 148/171/113 149/174/113 153/175/113 152/172/113
f 149/174/114 150/176/114 154/177/114 153/175/114
f 150/176/115 174/178/115 175/179/115 154/177/115
f 151/173/116 152/172/116 156/180/116 155/181/116
f 152/172/117 153/175/117 157/182/117 156/180/117
f 153/175/118 154/177/118 158/183/118 157/182/118
f 154/177/119 175/179/119 176/184/119 158/183/119
f 155/181/120 156/180/120 160/185/120 159/186/120
f 156/180/121 157/182/121 161/187/121 160/185/121
f 157/182/122 158/183/122 162/170/122 161/187/122
f 158/183/123 176/184/123 177/188/123 162/170/123
f 146/189/124 163/190/124 167/191/124 166/192/124
f 163/190/125 164/193/125 168/194/125 167/191/125
f 164/193/126 165/195/126 169/196/126 168/194/126
f 165/195/127 189/197/127 190/198/127 169/196/127
f 166/192/128 167/191/128 171/199/128 170/200/128
f 167/191/129 168/194/129 172/201/129 171/199/129
f 168/194/130 169/196/130 173/202/130 172/201/130
f 169/196/131 190/198/131 191/203/131 173/202/131
f 170/200/132 171/199/132 175/179/132 174/178/132
f 171/199/133 172/201/133 176/184/133 175/179/133
f 172/201/134 173/202/134 177/188/134 176/184/134
f 173/202/135 191/203/135 192/204/135 177/188/135
f 147/205/136 178/206/136 182/207/136 181/208/136
f 178/206/137 179/209/137 183/210/137 182/207/137
f 179/209/138 180/211/138 184/212/138 183/210/138
f 180/211/139 159/186/139 160/185/139 184/212/139
f 181/208/140 182/207/140 186/213/140 185/214/140
f 182/207/141 183/210/141 187/215/141 186/213/141
f 183/210/142 184/212/142 188/216/142 187/215/142
f 184/212/143 160/185/143 161/187/143 188/216/143
f 185/214/144 186/213/144 190/198/144 189/197/144
f 186/213/145 187/215/145 191/203/145 190/198/145
f 187/215/146 188/216/146 192/204/146 191/203/146
f 188/216/147 161/187/147 162/170/147 192/204/147
f 162/170/148 177/188/148 192/204/148
f 193/217/149 196/218/149 200/219/149 199/220/149
f 196/218/150 197/221/150 201/222/150 200/219/150
f 197/221/151 198/223/151 202/224/151 201/222/151
f 198/223/152 222/225/152 223/226/152 202/224/152
f 199/220/153 200/219/153 204/227/153 203/228/153
f 200/219/154 201/222/154 205/229/154 204/227/154
f 201/222/155 202/224/155 206/230/155 205/229/155
f 202/224/156 223/226/156 224/231/156 206/230/156
f 203/228/157 204/227/157 208/232/157 207/233/157
f 204/227/158 205/229/158 209/234/158 208/232/158
f 205/229/159 206/230/159 210/235/159 209/234/159
f 206/230/160 224/231/160 225/236/160 210/235/160
f 194/237/161 211/238/161 215/239/161 214/240/161
f 211/238/162 212/241/162 216/242/162 215/239/162
f 212/241/163 213/243/163 217/244/163 216/242/163
f 213/243/164 237/245/164 238/246/164 217/244/164
f 214/240/165 215/239/165 219/247/165 218/248/165
f 215/239/166 216/242/166 220/249/166 219/247/166
f 216/242/167 217/244/167 221/250/167 220/249/167
f 217/244/168 238/246/168 239/251/168 221/250/168
f 218/248/169 219/247/169 223/226/169 222/225/169
f 219/247/170 220/249/170 224/231/170 223/226/170
f 220/249/171 221/250/171 225/236/171 224/231/171
f 221/250/172 239/251/172 240/252/172 225/236/172
f 195/253/173 226/254/173 230/255/173 229/256/173
f 226/254/174 227/257/174 231/258/174 230/255/174
f 227/257/175 228/259/175 232/260/175 231/258/175
f 228/259/176 207/233/176 208/232/176 232/260/176
f 229/256/177 230/255/177 234/261/177 233/262/177
f 230/255/178 231/258/178 235/263/178 234/261/178
f 231/258/179 232/260/179 236/264/179 235/263/179
f 232/260/180 208/232/180 209/234/180 236/264/180
f 233/262/181 234/261/181 238/246/181 237/245/181
f 234/261/182 235/263/182 239/251/182 238/246/182
f 235/263/183 236/264/183 240/252/183 239/251/183
f 236/264/184 209/234/184 210/235/184 240/252/184
f 210/235/185 225/236/185 240/252/185
f 241/265/186 244/266/186 248/267/186 247/268/186
f 244/266/187 245/269/187 249/270/187 248/267/187
f 245/269/188 246/271/188 250/272/188 249/270/188
f 246/271/189 270/273/189 271/274/189 250/272/189
f 247/268/190 248/267/190 252/275/190 251/276/190
f 248/267/191 249/270/191 253/277/191 252/275/191
f 249/270/192 250/272/192 254/278/192 253/277/192
f 250/272/193 271/274/193 272/279/193 254/278/193
f 251/276/194 252/275/194 256/280/194 255/281/194
f 252/275/195 253/277/195 257/282/195 256/280/195
f 253/277/196 254/278/196 258/265/196 257/282/196
f 254/278/197 272/279/197 273/283/197 258/265/197
f 242/284/198 259/285/198 263/286/198 262/287/198
f 259/285/199 260/288/199 264/289/199 263/286/199
f 260/288/200 261/290/200 265/291/200 264/289/200
f 261/290/201 285/292/201 286/293/201 265/291/201
f 262/287/202 263/286/202 267/294/202 266/295/202
f 263/286/203 264/289/203 268/296/203 267/294/203
f 264/289/204 265/291/204 269/297/204 268/296/204
f 265/291/205 286/293/205 287/298/205 269/297/205
f 266/295/206 267/294/206 271/274/206 270/273/206
f 267/294/207 268/296/207 272/279/207 271/274/207
f 268/296/208 269/297/208 273/283/208 272/279/208
f 269/297/209 287/298/209 288/299/209 273/283/209
f 243/300/210 274/301/210 278/302/210 277/303/210
f 274/301/211 275/304/211 279/305/211 278/302/211
f 275/304/212 276/306/212 280/307/212 279/305/212
f 276/306/213 255/281/213 256/280/213 280/307/213
f 277/303/214 278/302/214 282/308/214 281/309/214
f 278/302/215 279/305/215 283/310/215 282/308/215
f 279/305/216 280/307/216 284/311/216 283/310/216
f 280/307/217 256/280/217 257/282/217 284/311/217
f 281/309/218 282/308/218 286/293/218 285/292/218
f 282/308/219 283/310/219 287/298/219 286/293/219
f 283/310/220 284/311/220 288/299/220 287/298/220
f 284/311/221 257/282/221 258/265/221 288/299/221
f 258/265/222 273/283/222 288/299/222
f 289/312/223 292/313/223 296/314/223 295/315/223
f 292/313/224 293/316/224 297/317/224 296/314/224
f 293/316/225 294/318/225 298/319/225 297/317/225
f 294/318/226 318/320/226 319/321/226 298/319/226
f 295/315/227 296/314/227 300/322/227 299/323/227
f 296/314/228 297/317/228 301/324/228 300/322/228
f 297/317/229 298/319/229 302/325/229 301/324/229
f 298/319/230 319/321/230 320/326/230 302/325/230
f 299/323/231 300/322/231 304/327/231 303/328/231
f 300/322/232 301/324/232 305/329/232 304/327/232
f 301/324/233 302/325/233 306/330/233 305/329/233
f 302/325/234 320/326/234 321/331/234 306/330/234
f 290/332/235 307/333/235 311/334/235 310/335/235
f 307/333/236 308/336/236 312/337/236 311/334/236
f 308/336/237 309/338/237 313/339/237 312/337/237
f 309/338/238 333/340/238 334/341/238 313/339/238
f 310/335/239 311/334/239 315/342/239 314/343/239
f 311/334/240 312/337/240 316/344/240 315/342/240
f 312/337/241 313/339/241 317/345/241 316/344/241
f 313/339/242 334/341/242 335/346/242 317/345/242
f 314/343/243 315/342/243 319/321/243 318/320/243
f 315/342/244 316/344/244 320/326/244 319/321/244
f 316/344/245 317/345/245 321/331/245 320/326/245
f 317/345/246 335/346/246 336/347/246 321/331/246
f 291/348/247 322/349/247 326/350/247 325/351/247
f 322/349/248 323/352/248 327/353/248 326/350/248
f 323/352/249 324/354/249 328/355/249 327/353/249
f 324/354/250 303/328/250 304/327/250 328/355/250
f 325/351/251 326/350/251 330/356/251 329/357/251
f 326/350/252 327/353/252 331/358/252 330/356/252
f 327/353/253 328/355/253 332/359/253 331/358/253
f 328/355/254 304/327/254 305/329/254 332/359/254
f 329/357/255 330/356/255 334/341/255 333/340/255
f 330/356/256 331/358/256 335/346/256 334/341/256
f 331/358/257 332/359/257 336/347/257 335/346/257
f 332/359/258 305/329/258 306/330/258 336/347/258
f 306/330/259 321/331/259 336/347/259
f 337/360/260 340/361/260 344/362/260 343/363/260
f 340/361/261 341/364/261 345/365/261 344/362/261
f 341/364/262 342/366/262 346/367/262 345/365/262
f 342/366/263 366/368/263 367/369/263 346/367/263
f 343/363/264 344/362/264 348/370/264 347/371/264
f 344/362/265 345/365/265 349/372/265 348/370/265
f 345/365/266 346/367/266 350/373/266 349/372/266
f 346/367/267 367/369/267 368/374/267 350/373/267
f 347/371/268 348/370/268 352/375/268 351/376/268
f 348/370/269 349/372/269 353/377/269 352/375/269
f 349/372/270 350/373/270 354/360/270 353/377/270
f 350/373/271 368/374/271 369/378/271 354/360/271
f 338/379/272 355/380/272 359/381/272 358/382/272
f 355/380/273 356/383/273 360/384/273 359/381/273
f 356/383/274 357/385/274 361/386/274 360/384/274
f 357/385/275 381/387/275 382/388/275 361/386/275
f 358/382/276 359/381/276 363/389/276 362/390/276
f 359/381/277 360/384/277 364/391/277 363/389/277
f 360/384/278 361/386/278 365/392/278 364/391/278
f 361/386/279 382/388/279 383/393/279 365/392/279
f 362/390/280 363/389/280 367/369/280 366/368/280
f 363/389/281 364/391/281 368/374/281 367/369/281
f 364/391/282 365/392/282 369/378/282 368/374/282
f 365/392/283 383/393/283 384/394/283 369/378/283
f 339/395/284 370/396/284 374/397/284 373/398/284
f 370/396/285 371/399/285 375/400/285 374/397/285
f 371/399/286 372/401/286 376/402/286 375/400/286
f 372/401/287 351/376/287 352/375/287 376/402/287
f 373/398/288 374/397/288 378/403/288 377/404/288
f 374/397/289 375/400/289 379/405/289 378/403/289
f 375/400/290 376/402/290 380/406/290 379/405/290
f 376/402/291 352/375/291 353/377/291 380/406/291
f 377/404/292 378/403/292 382/388/292 381/387/292
f 378/403/293 379/405/293 383/393/293 382/388/293
f 379/405/294 380/406/294 384/394/294 383/393/294
f 380/406/295 353/377/295 354/360/295 384/394/295
f 354/360/296 369/378/296 384/394/296
f 385/407/297 388/408/297 392/409/297 391/410/297
f 388/408/298 389/411/298 393/412/298 392/409/298
f 389/411/299 390/413/299 394/414/299 393/412/299
f 390/413/300 414/415/300 415/416/300 394/414/300
f 391/410/301 392/409/301 396/417/301 395/418/301
f 392/409/302 393/412/302 397/419/302 396/417/302
f 393/412/303 394/414/303 398/420/303 397/419/303
f 394/414/304 415/416/304 416/421/304 398/420/304
f 395/418/305 396/417/305 400/422/305 399/423/305
f 396/417/306 397/419/306 401/424/306 400/422/306
f 397/419/307 398/420/307 402/425/307 401/424/307
f 398/420/308 416/421/308 417/360/308 402/425/308
f 386/426/309 403/427/309 407/428/309 406/429/309
f 403/427/310 404/430/310 408/431/310 407/428/310
f 404/430/311 405/432/311 409/433/311 408/431/311
f 405/432/312 429/434/312 430/435/312 409/433/312
f 406/429/313 407/428/313 411/436/313 410/437/313
f 407/428/314 408/431/314 412/438/314 411/436/314
f 408/431/315 409/433/315 413/439/315 412/438/315
f 409/433/316 430/435/316 431/440/316 413/439/316
f 410/437/317 411/436/317 415/416/317 414/441/317
f 411/436/318 412/438/318 416/421/318 415/416/318
f 412/438/319 413/439/319 417/426/319 416/421/319
f 413/439/320 431/440/320 432/442/320 417/426/320
f 387/443/321 418/444/321 422/445/321 421/446/321
f 418/444/322 419/447/322 423/448/322 422/445/322
f 419/447/323 420/426/323 424/426/323 423/448/323
f 420/80/324 399/423/324 400/422/324 424/80/324
f 421/446/325 422/445/325 426/449/325 425/450/325
f 422/445/326 423/448/326 427/451/326 426/449/326
f 423/448/327 424/426/327 428/426/327 427/451/327
f 424/80/328 400/422/328 401/424/328 428/80/328
f 425/450/329 426/449/329 430/435/329 429/434/329
f 426/449/330 427/451/330 431/440/330 430/435/330
f 427/451/331 428/426/331 432/442/331 431/440/331
f 428/80/332 401/424/332 402/425/332 432/452/332
f 402/425/333 417/360/333 432/452/333
f 433/453/334 436/454/334 440/455/334 439/456/334
f 436/454/335 437/457/335 441/458/335 440/455/335
f 437/457/336 438/459/336 442/460/336 441/458/336
f 438/459/337 462/461/337 463/462/337 442/460/337
f 439/456/338 440/455/338 444/463/338 443/464/338
f 440/455/339 441/458/339 445/465/339 444/463/339
f 441/458/340 442/460/340 446/466/340 445/465/340
f 442/460/341 463/462/341 464/467/341 446/466/341
f 443/464/342 444/463/342 448/468/342 447/469/342
f 444/463/343 445/465/343 449/470/343 448/468/343
f 445/465/344 446/466/344 450/471/344 449/470/344
f 446/466/345 464/467/345 465/472/345 450/471/345
f 434/473/346 451/474/346 455/475/346 454/476/346
f 451/474/347 452/477/347 456/478/347 455/475/347
f 452/477/348 453/479/348 457/480/348 456/478/348
f 453/479/349 477/481/349 478/482/349 457/480/349
f 454/476/350 455/475/350 459/483/350 458/484/350
f 455/475/351 456/478/351 460/485/351 459/483/351
f 456/478/352 457/480/352 461/486/352 460/485/352
f 457/480/353 478/482/353 479/487/353 461/486/353
f 458/484/354 459/483/354 463/462/354 462/461/354
f 459/483/355 460/485/355 464/467/355 463/462/355
f 460/485/356 461/486/356 465/472/356 464/467/356
f 461/486/357 479/487/357 480/170/357 465/472/357
f 435/170/358 466/488/358 470/489/358 469/490/358
f 466/488/359 467/491/359 471/492/359 470/489/359
f 467/491/360 468/493/360 472/494/360 471/492/360
f 468/493/361 447/469/361 448/468/361 472/494/361
f 469/490/362 470/489/362 474/495/362 473/496/362
f 470/489/363 471/492/363 475/497/363 474/495/363
f 471/492/364 472/494/364 476/498/364 475/497/364
f 472/494/365 448/468/365 449/470/365 476/498/365
f 473/496/366 474/495/366 478/482/366 477/481/366
f 474/495/367 475/497/367 479/487/367 478/482/367
f 475/497/368 476/498/368 480/170/368 479/487/368
f 476/498/369 449/470/369 450/471/369 480/170/369
f 450/471/370 465/472/370 480/170/370
f 481/499/371 484/500/371 488/501/371 487/502/371
f 484/500/372 485/503/372 489/504/372 488/501/372
f 485/503/373 486/505/373 490/506/373 489/504/373
f 486/505/374 510/507/374 511/508/374 490/506/374
f 487/502/375 488/501/375 492/509/375 491/510/375
f 488/501/376 489/504/376 493/511/376 492/509/376
f 489/504/377 490/506/377 494/512/377 493/511/377
f 490/506/378 511/508/378 512/513/378 494/512/378
f 491/510/379 492/509/379 496/514/379 495/515/379
f 492/509/380 493/511/380 497/516/380 496/514/380
f 493/511/381 494/512/381 498/517/381 497/516/381
f 494/512/382 512/513/382 513/518/382 498/517/382
f 482/519/383 499/520/383 503/521/383 502/522/383
f 499/520/384 500/523/384 504/524/384 503/521/384
f 500/523/385 501/525/385 505/526/385 504/524/385
f 501/525/386 525/527/386 526/528/386 505/526/386
f 502/522/387 503/521/387 507/529/387 506/530/387
f 503/521/388 504/524/388 508/531/388 507/529/388
f 504/524/389 505/526/389 509/532/389 508/531/389
f 505/526/390 526/528/390 527/533/390 509/532/390
f 506/530/391 507/529/391 511/508/391 510/507/391
f 507/529/392 508/531/392 512/513/392 511/508/392
f 508/531/393 509/532/393 513/518/393 512/513/393
f 509/532/394 527/533/394 528/265/394 513/518/394
f 483/265/395 514/534/395 518/535/395 517/536/395
f 514/534/396 515/537/396 519/538/396 518/535/396
f 515/537/397 516/539/397 520/540/397 519/538/397
f 516/539/398 495/515/398 496/514/398 520/540/398
f 517/536/399 518/535/399 522/541/399 521/542/399
f 518/535/400 519/538/400 523/543/400 522/541/400
f 519/538/401 520/540/401 524/544/401 523/543/401
f 520/540/402 496/514/402 497/516/402 524/544/402
f 521/542/403 522/541/403 526/528/403 525/527/403
f 522/541/404 523/543/404 527/533/404 526/528/404
f 523/543/405 524/544/405 528/265/405 527/533/405
f 524/544/406 497/516/406 498/517/406 528/265/406
f 498/517/407 513/518/407 528/265/407
f 529/545/408 532/546/408 536/547/408 535/548/408
f 532/546/409 533/549/409 537/550/409 536/547/409
f 533/549/410 534/551/410 538/552/410 537/550/410
f 534/551/411 558/553/411 559/554/411 538/552/411
f 535/548/412 536/547/412 540/555/412 539/556/412
f 536/547/413 537/550/413 541/557/413 540/555/413
f 537/550/414 538/552/414 542/558/414 541/557/414
f 538/552/415 559/554/415 560/559/415 542/558/415
f 539/556/416 540/555/416 544/560/416 543/561/416
f 540/555/417 541/557/417 545/562/417 544/560/417
f 541/557/418 542/558/418 546/563/418 545/562/418
f 542/558/419 560/559/419 561/564/419 546/563/419
f 530/565/420 547/566/420 551/567/420 550/568/420
f 547/566/421 548/569/421 552/570/421 551/567/421
f 548/569/422 549/571/422 553/572/422 552/570/422
f 549/571/423 573/573/423 574/574/423 553/572/423
f 550/568/424 551/567/424 555/575/424 554/576/424
f 551/567/425 552/570/425 556/577/425 555/575/425
f 552/570/426 553/572/426 557/578/426 556/577/426
f 553/572/427 574/574/427 575/579/427 557/578/427
f 554/576/428 555/575/428 559/554/428 558/553/428
f 555/575/429 556/577/429 560/559/429 559/554/429
f 556/577/430 557/578/430 561/564/430 560/559/430
f 557/578/431 575/579/431 576/360/431 561/564/431
f 531/360/432 562/580/432 566/581/432 565/582/432
f 562/580/433 563/583/433 567/584/433 566/581/433
f 563/583/434 564/585/434 568/586/434 567/584/434
f 564/585/435 543/561/435 544/560/435 568/586/435
f 565/582/436 566/581/436 570/587/436 569/588/436
f 566/581/437 567/584/437 571/589/437 570/587/437
f 567/584/438 568/586/438 572/590/438 571/589/438
f 568/586/439 544/560/439 545/562/439 572/590/439
f 569/588/440 570/587/440 574/574/440 573/573/440
f 570/587/441 571/589/441 575/579/441 574/574/441
f 571/589/442 572/590/442 576/360/442 575/579/442
f 572/590/443 545/562/443 546/563/443 576/360/443
f 546/563/444 561/564/444 576/360/444
f 577/591/445 580/592/445 584/593/445 583/594/445
f 580/592/446 581/595/446 585/596/446 584/593/446
f 581/595/447 582/597/447 586/598/447 585/596/447
f 582/597/448 606/80/448 607/80/448 586/598/448
f 583/594/449 584/593/449 588/599/449 587/600/449
f 584/593/450 585/596/450 589/601/450 588/599/450
f 585/596/451 586/598/451 590/602/451 589/601/451
f 586/598/452 607/80/452 608/80/452 590/602/452
f 587/600/453 588/599/453 592/603/453 591/604/453
f 588/599/454 589/601/454 593/605/454 592/603/454
f 589/601/455 590/602/455 594/606/455 593/605/455
f 590/602/456 608/80/456 609/80/456 594/606/456
f 578/607/457 595/608/457 599/609/457 598/610/457
f 595/608/458 596/611/458 600/612/458 599/609/458
f 596/611/459 597/613/459 601/614/459 600/612/459
f 597/613/460 621/615/460 622/616/460 601/614/460
f 598/610/461 599/609/461 603/617/461 602/618/461
f 599/609/462 600/612/462 604/619/462 603/617/462
f 600/612/463 601/614/463 605/620/463 604/619/463
f 601/614/464 622/616/464 623/621/464 605/620/464
f 602/618/465 603/617/465 607/622/465 606/622/465
f 603/617/466 604/619/466 608/426/466 607/622/466
f 604/619/467 605/620/467 609/426/467 608/426/467
f 605/620/468 623/621/468 624/623/468 609/426/468
f 579/624/469 610/625/469 614/626/469 613/627/469
f 610/625/470 611/628/470 615/629/470 614/626/470
f 611/628/471 612/630/471 616/631/471 615/629/471
f 612/632/472 591/604/472 592/603/472 616/633/472
f 613/627/473 614/626/473 618/634/473 617/635/473
f 614/626/474 615/629/474 619/636/474 618/634/474
f 615/629/475 616/631/475 620/637/475 619/636/475
f 616/633/476 592/603/476 593/605/476 620/638/476
f 617/635/477 618/634/477 622/639/477 621/640/477
f 618/634/478 619/636/478 623/641/478 622/639/478
f 619/636/479 620/637/479 624/642/479 623/641/479
f 620/638/480 593/605/480 594/606/480 624/643/480
f 594/606/481 609/80/481 624/643/481
f 625/644/482 628/645/482 632/646/482 631/647/482
f 628/645/483 629/648/483 633/649/483 632/646/483
f 629/648/484 630/650/484 634/651/484 633/649/484
f 630/650/485 654/652/485 655/653/485 634/651/485
f 631/647/486 632/646/486 636/654/486 635/655/486
f 632/646/487 633/649/487 637/656/487 636/654/487
f 633/649/488 634/651/488 638/657/488 637/656/488
f 634/651/489 655/653/489 656/658/489 638/657/489
f 635/655/490 636/654/490 640/659/490 639/660/490
f 636/654/491 637/656/491 641/661/491 640/659/491
f 637/656/492 638/657/492 642/662/492 641/661/492
f 638/657/493 656/658/493 657/663/493 642/662/493
f 626/664/494 643/665/494 647/666/494 646/667/494
f 643/665/495 644/668/495 648/669/495 647/666/495
f 644/668/496 645/670/496 649/671/496 648/669/496
f 645/672/497 669/673/497 670/674/497 649/675/497
f 646/667/498 647/666/498 651/676/498 650/677/498
f 647/666/499 648/669/499 652/678/499 651/676/499
f 648/669/500 649/671/500 653/679/500 652/678/500
f 649/675/501 670/674/501 671/680/501 653/681/501
f 650/677/502 651/676/502 655/682/502 654/683/502
f 651/676/503 652/678/503 656/684/503 655/682/503
f 652/678/504 653/679/504 657/685/504 656/684/504
f 653/681/505 671/680/505 672/686/505 657/663/505
f 627/687/506 658/688/506 662/689/506 661/690/506
f 658/688/507 659/691/507 663/692/507 662/689/507
f 659/691/508 660/693/508 664/694/508 663/692/508
f 660/693/509 639/660/509 640/659/509 664/694/509
f 661/690/510 662/689/510 666/695/510 665/696/510
f 662/689/511 663/692/511 667/697/511 666/695/511
f 663/692/512 664/694/512 668/698/512 667/697/512
f 664/694/513 640/659/513 641/661/513 668/698/513
f 665/696/514 666/695/514 670/674/514 669/673/514
f 666/695/515 667/697/515 671/680/515 670/674/515
f 667/697/516 668/698/516 672/686/516 671/680/516
f 668/698/517 641/661/517 642/662/517 672/686/517
f 642/662/518 657/663/518 672/686/518
f 673/699/519 676/700/519 680/701/519 679/702/519
f 676/700/520 677/703/520 681/704/520 680/701/520
f 677/703/521 678/705/521 682/706/521 681/704/521
f 678/705/522 702/707/522 703/708/522 682/706/522
f 679/702/523 680/701/523 684/709/523 683/710/523
f 680/701/524 681/704/524 685/711/524 684/709/524
f 681/704/525 682/706/525 686/712/525 685/711/525
f 682/706/526 703/708/526 704/713/526 686/712/526
f 683/710/527 684/709/527 688/714/527 687/715/527
f 684/709/528 685/711/528 689/716/528 688/714/528
f 685/711/529 686/712/529 690/717/529 689/716/529
f 686/712/530 704/713/530 705/718/530 690/717/530
f 674/719/531 691/720/531 695/721/531 694/722/531
f 691/720/532 692/723/532 696/724/532 695/721/532
f 692/723/533 693/725/533 697/726/533 696/724/533
f 693/725/534 717/727/534 718/728/534 697/726/534
f 694/722/535 695/721/535 699/729/535 698/730/535
f 695/721/536 696/724/536 700/731/536 699/729/536
f 696/724/537 697/726/537 701/732/537 700/731/537
f 697/726/538 718/728/538 719/733/538 701/732/538
f 698/730/539 699/729/539 703/708/539 702/707/539
f 699/729/540 700/731/540 704/713/540 703/708/540
f 700/731/541 701/732/541 705/718/541 704/713/541
f 701/732/542 719/733/542 720/734/542 705/718/542
f 675/735/543 706/736/543 710/737/543 709/738/543
f 706/736/544 707/739/544 711/740/544 710/737/544
f 707/739/545 708/741/545 712/742/545 711/740/545
f 708/741/546 687/715/546 688/714/546 712/742/546
f 709/738/547 710/737/547 714/743/547 713/744/547
f 710/737/548 711/740/548 715/745/548 714/743/548
f 711/740/549 712/742/549 716/746/549 715/745/549
f 712/742/550 688/714/550 689/716/550 716/746/550
f 713/744/551 714/743/551 718/728/551 717/727/551
f 714/743/552 715/745/552 719/733/552 718/728/552
f 715/745/553 716/746/553 720/734/553 719/733/553
f 716/746/554 689/716/554 690/717/554 720/734/554
f 690/717/555 705/718/555 720/734/555
f 721/747/556 724/748/556 728/749/556 727/750/556
f 724/748/557 725/751/557 729/752/557 728/749/557
f 725/751/558 726/753/558 730/754/558 729/752/558
f 726/753/559 750/755/559 751/756/559 730/754/559
f 727/750/560 728/749/560 732/757/560 731/758/560
f 728/749/561 729/752/561 733/759/561 732/757/561
f 729/752/562 730/754/562 734/760/562 733/759/562
f 730/754/563 751/756/563 752/761/563 734/760/563
f 731/758/564 732/757/564 736/762/564 735/763/564
f 732/757/565 733/759/565 737/764/565 736/762/565
f 733/759/566 734/760/566 738/765/566 737/764/566
f 734/760/567 752/761/567 753/766/567 738/765/567
f 722/767/568 739/768/568 743/769/568 742/770/568
f 739/768/569 740/771/569 744/772/569 743/769/569
f 740/771/570 741/773/570 745/774/570 744/772/570
f 741/773/571 765/775/571 766/776/571 745/774/571
f 742/770/572 743/769/572 747/777/572 746/778/572
f 743/769/573 744/772/573 748/779/573 747/777/573
f 744/772/574 745/774/574 749/780/574 748/779/574
f 745/774/575 766/776/575 767/781/575 749/780/575
f 746/778/576 747/777/576 751/756/576 750/755/576
f 747/777/577 748/779/577 752/761/577 751/756/577
f 748/779/578 749/780/578 753/766/578 752/761/578
f 749/780/579 767/781/579 768/782/579 753/766/579
f 723/783/580 754/784/580 758/785/580 757/786/580
f 754/784/581 755/787/581 759/788/581 758/785/581
f 755/787/582 756/789/582 760/790/582 759/788/582
f 756/789/583 735/763/583 736/762/583 760/790/583
f 757/786/584 758/785/584 762/791/584 761/792/584
f 758/785/585 759/788/585 763/793/585 762/791/585
f 759/788/586 760/790/586 764/794/586 763/793/586
f 760/790/587 736/762/587 737/764/587 764/794/587
f 761/792/588 762/791/588 766/776/588 765/775/588
f 762/791/589 763/793/589 767/781/589 766/776/589
f 763/793/590 764/794/590 768/782/590 767/781/590
f 764/794/591 737/764/591 738/765/591 768/782/591
f 738/765/592 753/766/592 768/782/592
f 97/114/593 1/1/593 7/4/593 100/115/593
f 100/115/594 7/4/594 11/12/594 101/118/594
f 101/118/595 11/12/595 15/17/595 102/120/595
f 102/120/596 15/17/596 36/53/596 126/122/596
f 126/150/597 36/51/597 35/49/597 122/145/597
f 122/145/598 35/49/598 34/46/598 118/137/598
f 118/137/599 34/46/599 3/45/599 98/134/599
f 2/21/600 49/61/600 55/64/600 19/22/600
f 19/22/601 55/64/601 59/72/601 20/25/601
f 20/25/602 59/72/602 63/77/602 21/27/602
f 21/29/603 63/106/603 84/104/603 45/30/603
f 45/30/604 84/104/604 83/102/604 41/56/604
f 41/56/605 83/102/605 82/99/605 37/48/605
f 37/48/606 82/99/606 51/98/606 3/45/606
f 50/80/607 145/170/607 151/173/607 67/81/607
f 67/81/608 151/173/608 155/181/608 68/84/608
f 68/84/609 155/181/609 159/186/609 69/86/609
f 69/86/596 159/186/596 180/211/596 93/88/596
f 93/88/610 180/211/610 179/209/610 89/109/610
f 89/109/611 179/209/611 178/206/611 85/101/611
f 85/101/612 178/206/612 147/205/612 51/98/612
f 146/189/613 99/154/613 133/157/613 163/190/613
f 163/190/614 133/157/614 137/165/614 164/193/614
f 164/193/615 137/165/615 141/142/615 165/195/615
f 165/195/616 141/142/616 117/140/616 189/197/616
f 189/197/617 117/140/617 116/138/617 185/214/617
f 185/214/618 116/138/618 115/135/618 181/208/618
f 181/208/619 115/135/619 98/134/619 147/205/619
f 289/312/620 97/114/620 103/117/620 292/313/620
f 292/313/621 103/117/621 107/125/621 293/316/621
f 293/316/622 107/125/622 111/130/622 294/318/622
f 294/318/623 111/130/623 132/162/623 318/320/623
f 318/320/624 132/160/624 131/158/624 314/343/624
f 314/343/625 131/158/625 130/155/625 310/335/625
f 310/335/626 130/155/626 99/154/626 290/332/626
f 145/170/627 337/360/627 343/363/627 148/171/627
f 148/171/628 343/363/628 347/371/628 149/174/628
f 149/174/629 347/371/629 351/376/629 150/176/629
f 150/176/623 351/376/623 372/401/623 174/178/623
f 174/178/630 372/401/630 371/399/630 170/200/630
f 170/200/631 371/399/631 370/396/631 166/192/631
f 166/192/632 370/396/632 339/395/632 146/189/632
f 338/379/633 291/348/633 325/351/633 355/380/633
f 355/380/634 325/351/634 329/357/634 356/383/634
f 356/383/635 329/357/635 333/340/635 357/385/635
f 357/385/636 333/340/636 309/338/636 381/387/636
f 381/387/637 309/338/637 308/336/637 377/404/637
f 377/404/638 308/336/638 307/333/638 373/398/638
f 373/398/639 307/333/639 290/332/639 339/395/639
f 193/217/640 289/312/640 295/315/640 196/218/640
f 196/218/641 295/315/641 299/323/641 197/221/641
f 197/221/642 299/323/642 303/328/642 198/223/642
f 198/223/643 303/328/643 324/354/643 222/225/643
f 222/225/644 324/354/644 323/352/644 218/248/644
f 218/248/645 323/352/645 322/349/645 214/240/645
f 214/240/646 322/349/646 291/348/646 194/237/646
f 337/360/647 241/265/647 247/268/647 340/361/647
f 340/361/648 247/268/648 251/276/648 341/364/648
f 341/364/649 251/276/649 255/281/649 342/366/649
f 342/366/643 255/281/643 276/306/643 366/368/643
f 366/368/650 276/306/650 275/304/650 362/390/650
f 362/390/651 275/304/651 274/301/651 358/382/651
f 358/382/652 274/301/652 243/300/652 338/379/652
f 242/284/653 195/253/653 229/256/653 259/285/653
f 259/285/654 229/256/654 233/262/654 260/288/654
f 260/288/655 233/262/655 237/245/655 261/290/655
f 261/290/656 237/245/656 213/243/656 285/292/656
f 285/292/657 213/243/657 212/241/657 281/309/657
f 281/309/658 212/241/658 211/238/658 277/303/658
f 277/303/659 211/238/659 194/237/659 243/300/659
f 1/1/660 193/217/660 199/220/660 4/2/660
f 4/2/661 199/220/661 203/228/661 5/5/661
f 5/5/662 203/228/662 207/233/662 6/7/662
f 6/7/663 207/233/663 228/259/663 30/9/663
f 30/40/664 228/259/664 227/257/664 26/34/664
f 26/34/665 227/257/665 226/254/665 22/24/665
f 22/24/666 226/254/666 195/253/666 2/21/666
f 241/265/667 50/426/667 70/795/667 244/266/667
f 244/266/668 70/795/668 74/796/668 245/269/668
f 245/269/669 74/796/669 78/69/669 246/271/669
f 246/271/663 78/69/663 54/67/663 270/273/663
f 270/273/670 54/67/670 53/65/670 266/295/670
f 266/295/671 53/65/671 52/62/671 262/287/671
f 262/287/672 52/62/672 49/61/672 242/284/672
f 385/407/673 433/453/673 439/456/673 388/408/673
f 388/408/674 439/456/674 443/464/674 389/411/674
f 389/411/675 443/464/675 447/469/675 390/413/675
f 390/413/676 447/469/676 468/493/676 414/415/676
f 414/415/677 468/493/677 467/491/677 410/797/677
f 410/797/678 467/491/678 466/488/678 406/798/678
f 406/798/679 466/488/679 435/170/679 386/80/679
f 434/473/680 529/545/680 535/548/680 451/474/680
f 451/474/681 535/548/681 539/556/681 452/477/681
f 452/477/682 539/556/682 543/561/682 453/479/682
f 453/479/683 543/561/683 564/585/683 477/481/683
f 477/481/684 564/585/684 563/583/684 473/496/684
f 473/496/685 563/583/685 562/580/685 469/490/685
f 469/490/686 562/580/686 531/360/686 435/170/686
f 530/565/687 481/499/687 487/502/687 547/566/687
f 547/566/688 487/502/688 491/510/688 548/569/688
f 548/569/689 491/510/689 495/515/689 549/571/689
f 549/571/690 495/515/690 516/539/690 573/573/690
f 573/573/691 516/539/691 515/537/691 569/588/691
f 569/588/692 515/537/692 514/534/692 565/582/692
f 565/582/693 514/534/693 483/265/693 531/360/693
f 482/519/694 387/443/694 421/446/694 499/520/694
f 499/520/695 421/446/695 425/450/695 500/523/695
f 500/523/696 425/450/696 429/434/696 501/525/696
f 501/525/697 429/434/697 405/432/697 525/527/697
f 525/527/698 405/432/698 404/430/698 521/542/698
f 521/542/699 404/430/699 403/427/699 517/536/699
f 517/536/700 403/427/700 386/426/700 483/265/700
f 579/624/701 626/664/701 646/667/701 610/625/701
f 610/625/702 646/667/702 650/677/702 611/628/702
f 611/628/703 650/677/703 654/683/703 612/630/703
f 612/632/704 654/652/704 630/650/704 591/604/704
f 591/604/705 630/650/705 629/648/705 587/600/705
f 587/600/706 629/648/706 628/645/706 583/594/706
f 583/594/707 628/645/707 625/644/707 577/591/707
f 626/664/708 722/767/708 742/770/708 643/665/708
f 643/665/709 742/770/709 746/778/709 644/668/709
f 644/668/710 746/778/710 750/755/710 645/670/710
f 645/672/711 750/755/711 726/753/711 669/673/711
f 669/673/712 726/753/712 725/751/712 665/696/712
f 665/696/713 725/751/713 724/748/713 661/690/713
f 661/690/714 724/748/714 721/747/714 627/687/714
f 722/767/715 674/719/715 694/722/715 739/768/715
f 739/768/716 694/722/716 698/730/716 740/771/716
f 740/771/717 698/730/717 702/707/717 741/773/717
f 741/773/718 702/707/718 678/705/718 765/775/718
f 765/775/719 678/705/719 677/703/719 761/792/719
f 761/792/720 677/703/720 676/700/720 757/786/720
f 757/786/721 676/700/721 673/699/721 723/783/721
f 674/719/722 579/624/722 613/627/722 691/720/722
f 691/720/723 613/627/723 617/635/723 692/723/723
f 692/723/724 617/635/724 621/640/724 693/725/724
f 693/725/725 621/615/725 597/613/725 717/727/725
f 717/727/726 597/613/726 596/611/726 713/744/726
f 713/744/727 596/611/727 595/608/727 709/738/727
f 709/738/728 595/608/728 578/607/728 675/735/728
f 529/545/729 721/747/729 727/750/729 532/546/729
f 532/546/730 727/750/730 731/758/730 533/549/730
f 533/549/731 731/758/731 735/763/731 534/551/731
f 534/551/732 735/763/732 756/789/732 558/553/732
f 558/553/733 756/789/733 755/787/733 554/576/733
f 554/576/734 755/787/734 754/784/734 550/568/734
f 550/568/735 754/784/735 723/783/735 530/565/735
f 675/735/736 482/519/736 502/522/736 706/736/736
f 706/736/737 502/522/737 506/530/737 707/739/737
f 707/739/738 506/530/738 510/507/738 708/741/738
f 708/741/739 510/507/739 486/505/739 687/715/739
f 687/715/740 486/505/740 485/503/740 683/710/740
f 683/710/741 485/503/741 484/500/741 679/702/741
f 679/702/742 484/500/742 481/499/742 673/699/742
f 387/443/743 578/607/743 598/610/743 418/444/743
f 418/444/744 598/610/744 602/618/744 419/447/744
f 419/447/745 602/618/745 606/622/745 420/426/745
f 420/80/746 606/80/746 582/597/746 399/423/746
f 399/423/747 582/597/747 581/595/747 395/418/747
f 395/418/748 581/595/748 580/592/748 391/410/748
f 391/410/749 580/592/749 577/591/749 385/407/749
f 627/687/750 434/473/750 454/476/750 658/688/750
f 658/688/751 454/476/751 458/484/751 659/691/751
f 659/691/752 458/484/752 462/461/752 660/693/752
f 660/693/753 462/461/753 438/459/753 639/660/753
f 639/660/754 438/459/754 437/457/754 635/655/754
f 635/655/755 437/457/755 436/454/755 631/647/755
f 631/647/756 436/454/756 433/453/756 625/644/756
f 97/114/757 289/312/757 193/217/757 1/1/757
f 3/45/758 51/98/758 147/205/758 98/134/758
f 195/253/759 242/284/759 49/61/759 2/21/759
f 50/426/757 241/265/757 483/265/757 386/426/757
f 145/170/760 50/80/760 386/80/760 435/170/760
f 99/154/761 146/189/761 339/395/761 290/332/761
f 337/360/757 145/170/757 435/170/757 531/360/757
f 291/348/762 338/379/762 243/300/762 194/237/762
f 241/265/763 337/360/763 531/360/763 483/265/763
f 433/453/764 385/407/764 577/591/764 625/644/764
f 387/443/765 482/519/765 675/735/765 578/607/765
f 529/545/766 434/473/766 627/687/766 721/747/766
f 481/499/767 530/565/767 723/783/767 673/699/767
f 722/767/768 626/664/768 579/624/768 674/719/768
